<svg xmlns="http://www.w3.org/2000/svg" xmlns:xlink="http://www.w3.org/1999/xlink" width="321" zoomAndPan="magnify" viewBox="0 0 240.75 141.750002" height="189" preserveAspectRatio="xMidYMid meet" version="1.0"><defs><clipPath id="b1f195929d"><path d="M 0.0859375 0 L 240.414062 0 L 240.414062 141.5 L 0.0859375 141.5 Z M 0.0859375 0 " clip-rule="nonzero"/></clipPath><clipPath id="9a0a10bea6"><path d="M 56.925781 54.515625 L 182.511719 54.515625 L 182.511719 69.144531 L 56.925781 69.144531 Z M 56.925781 54.515625 " clip-rule="nonzero"/></clipPath></defs><g clip-path="url(#b1f195929d)"><path fill="#ffffff" d="M 0.0859375 0 L 240.414062 0 L 240.414062 141.5 L 0.0859375 141.5 Z M 0.0859375 0 " fill-opacity="1" fill-rule="nonzero"/><path fill="#000000" d="M 0.0859375 0 L 240.414062 0 L 240.414062 141.5 L 0.0859375 141.5 Z M 0.0859375 0 " fill-opacity="1" fill-rule="nonzero"/></g><path stroke-linecap="butt" transform="matrix(0.00103893, -0.428244, 0.428244, 0.00103893, 118.432146, 104.165996)" fill="none" stroke-linejoin="miter" d="M 0.000247259 2.001003 L 206.101948 2.002682 " stroke="#ffffff" stroke-width="4" stroke-opacity="1" stroke-miterlimit="4"/><path fill="#ffffff" d="M 54.730469 33.28125 L 63.375 33.28125 L 84.011719 76.59375 L 100.132812 33.28125 L 109.589844 33.28125 L 109.589844 33.816406 C 108.050781 33.816406 106.925781 34.28125 106.226562 35.214844 C 105.53125 36.144531 105.09375 37.65625 104.914062 39.757812 C 104.738281 41.851562 104.648438 44.671875 104.648438 48.214844 L 104.648438 72.082031 C 104.648438 75.589844 104.738281 78.402344 104.914062 80.519531 C 105.09375 82.632812 105.53125 84.15625 106.226562 85.089844 C 106.925781 86.015625 108.050781 86.480469 109.589844 86.480469 L 109.589844 87.015625 L 95.082031 87.015625 L 95.082031 86.480469 C 96.621094 86.480469 97.742188 86.015625 98.4375 85.089844 C 99.136719 84.15625 99.578125 82.632812 99.757812 80.519531 C 99.9375 78.402344 100.027344 75.589844 100.027344 72.082031 L 100.027344 35.054688 C 98.09375 40.210938 96.175781 45.355469 94.273438 50.480469 C 92.375 55.601562 90.441406 60.84375 88.472656 66.199219 C 86.503906 71.554688 84.40625 77.183594 82.183594 83.089844 L 81.699219 83.089844 C 80.015625 79.472656 78.449219 76.117188 77 73.015625 C 75.546875 69.917969 74.167969 66.953125 72.859375 64.121094 C 71.558594 61.292969 70.242188 58.472656 68.914062 55.664062 C 67.589844 52.851562 66.226562 49.933594 64.828125 46.902344 C 63.429688 43.875 61.90625 40.609375 60.261719 37.097656 L 60.207031 60.152344 L 60.207031 66.96875 C 60.207031 70.875 60.457031 74.101562 60.957031 76.648438 C 61.460938 79.1875 62.144531 81.175781 63 82.609375 C 63.863281 84.042969 64.828125 85.046875 65.898438 85.625 C 66.976562 86.195312 68.089844 86.480469 69.238281 86.480469 L 69.238281 87.015625 L 54.730469 87.015625 L 54.730469 86.480469 C 56.269531 86.480469 57.390625 86.015625 58.085938 85.089844 C 58.785156 84.15625 59.226562 82.632812 59.40625 80.519531 C 59.582031 78.402344 59.671875 75.589844 59.671875 72.082031 L 59.671875 48.214844 C 59.671875 44.671875 59.582031 41.851562 59.40625 39.757812 C 59.226562 37.65625 58.785156 36.144531 58.085938 35.214844 C 57.390625 34.28125 56.269531 33.816406 54.730469 33.816406 Z M 54.730469 33.28125 " fill-opacity="1" fill-rule="nonzero"/><path fill="#ffffff" d="M 128.558594 33.28125 L 137.203125 33.28125 L 157.839844 76.59375 L 173.960938 33.28125 L 183.417969 33.28125 L 183.417969 33.816406 C 181.878906 33.816406 180.753906 34.28125 180.054688 35.214844 C 179.359375 36.144531 178.921875 37.65625 178.742188 39.757812 C 178.566406 41.851562 178.476562 44.671875 178.476562 48.214844 L 178.476562 72.082031 C 178.476562 75.589844 178.566406 78.402344 178.742188 80.519531 C 178.921875 82.632812 179.359375 84.15625 180.054688 85.089844 C 180.753906 86.015625 181.878906 86.480469 183.417969 86.480469 L 183.417969 87.015625 L 168.910156 87.015625 L 168.910156 86.480469 C 170.449219 86.480469 171.570312 86.015625 172.265625 85.089844 C 172.964844 84.15625 173.40625 82.632812 173.585938 80.519531 C 173.765625 78.402344 173.855469 75.589844 173.855469 72.082031 L 173.855469 35.054688 C 171.921875 40.210938 170.003906 45.355469 168.101562 50.480469 C 166.203125 55.601562 164.269531 60.84375 162.300781 66.199219 C 160.332031 71.554688 158.234375 77.183594 156.011719 83.089844 L 155.527344 83.089844 C 153.84375 79.472656 152.277344 76.117188 150.828125 73.015625 C 149.375 69.917969 147.996094 66.953125 146.6875 64.121094 C 145.386719 61.292969 144.070312 58.472656 142.742188 55.664062 C 141.417969 52.851562 140.054688 49.933594 138.65625 46.902344 C 137.257812 43.875 135.734375 40.609375 134.089844 37.097656 L 134.035156 60.152344 L 134.035156 66.96875 C 134.035156 70.875 134.285156 74.101562 134.785156 76.648438 C 135.289062 79.1875 135.972656 81.175781 136.828125 82.609375 C 137.691406 84.042969 138.65625 85.046875 139.726562 85.625 C 140.804688 86.195312 141.917969 86.480469 143.066406 86.480469 L 143.066406 87.015625 L 128.558594 87.015625 L 128.558594 86.480469 C 130.097656 86.480469 131.21875 86.015625 131.914062 85.089844 C 132.613281 84.15625 133.054688 82.632812 133.234375 80.519531 C 133.410156 78.402344 133.5 75.589844 133.5 72.082031 L 133.5 48.214844 C 133.5 44.671875 133.410156 41.851562 133.234375 39.757812 C 133.054688 37.65625 132.613281 36.144531 131.914062 35.214844 C 131.21875 34.28125 130.097656 33.816406 128.558594 33.816406 Z M 128.558594 33.28125 " fill-opacity="1" fill-rule="nonzero"/><g clip-path="url(#9a0a10bea6)"><path fill="#000000" d="M 56.925781 54.515625 L 182.507812 54.515625 L 182.507812 69.144531 L 56.925781 69.144531 Z M 56.925781 54.515625 " fill-opacity="1" fill-rule="nonzero"/></g><path fill="#ffffff" d="M 65.730469 65.246094 L 65.71875 61.285156 L 63.777344 64.550781 L 63.089844 64.550781 L 61.152344 61.375 L 61.152344 65.246094 L 59.726562 65.246094 L 59.726562 58.644531 L 60.984375 58.644531 L 63.453125 62.75 L 65.890625 58.644531 L 67.148438 58.644531 L 67.164062 65.246094 Z M 65.730469 65.246094 " fill-opacity="1" fill-rule="nonzero"/><path fill="#ffffff" d="M 74.933594 65.363281 C 74.25 65.363281 73.632812 65.214844 73.078125 64.917969 C 72.527344 64.621094 72.097656 64.210938 71.785156 63.695312 C 71.472656 63.179688 71.320312 62.597656 71.320312 61.945312 C 71.320312 61.300781 71.472656 60.714844 71.785156 60.199219 C 72.097656 59.679688 72.527344 59.273438 73.078125 58.976562 C 73.632812 58.679688 74.25 58.53125 74.933594 58.53125 C 75.617188 58.53125 76.230469 58.679688 76.78125 58.976562 C 77.328125 59.273438 77.757812 59.679688 78.074219 60.199219 C 78.386719 60.714844 78.546875 61.300781 78.546875 61.945312 C 78.546875 62.597656 78.386719 63.179688 78.074219 63.695312 C 77.757812 64.210938 77.328125 64.621094 76.78125 64.917969 C 76.230469 65.214844 75.617188 65.363281 74.933594 65.363281 Z M 74.933594 64.0625 C 75.328125 64.0625 75.675781 63.972656 75.988281 63.792969 C 76.300781 63.613281 76.546875 63.367188 76.726562 63.042969 C 76.910156 62.722656 77.003906 62.355469 77.003906 61.945312 C 77.003906 61.535156 76.910156 61.175781 76.726562 60.859375 C 76.546875 60.535156 76.300781 60.289062 75.988281 60.109375 C 75.675781 59.925781 75.328125 59.832031 74.933594 59.832031 C 74.546875 59.832031 74.195312 59.925781 73.882812 60.109375 C 73.5625 60.289062 73.320312 60.535156 73.140625 60.859375 C 72.960938 61.175781 72.871094 61.535156 72.871094 61.945312 C 72.871094 62.355469 72.960938 62.722656 73.140625 63.042969 C 73.320312 63.367188 73.5625 63.613281 73.882812 63.792969 C 74.195312 63.972656 74.546875 64.0625 74.933594 64.0625 Z M 74.933594 64.0625 " fill-opacity="1" fill-rule="nonzero"/><path fill="#ffffff" d="M 84.074219 59.894531 L 81.957031 59.894531 L 81.957031 58.644531 L 87.710938 58.644531 L 87.710938 59.894531 L 85.597656 59.894531 L 85.597656 65.246094 L 84.074219 65.246094 Z M 84.074219 59.894531 " fill-opacity="1" fill-rule="nonzero"/><path fill="#ffffff" d="M 91.542969 58.644531 L 93.070312 58.644531 L 93.070312 65.246094 L 91.542969 65.246094 Z M 91.542969 58.644531 " fill-opacity="1" fill-rule="nonzero"/><path fill="#ffffff" d="M 100.84375 65.363281 C 100.15625 65.363281 99.539062 65.214844 98.984375 64.917969 C 98.4375 64.621094 98.007812 64.210938 97.691406 63.695312 C 97.382812 63.179688 97.230469 62.597656 97.230469 61.945312 C 97.230469 61.300781 97.382812 60.714844 97.691406 60.199219 C 98.007812 59.679688 98.4375 59.273438 98.984375 58.976562 C 99.539062 58.679688 100.15625 58.53125 100.84375 58.53125 C 101.523438 58.53125 102.140625 58.679688 102.6875 58.976562 C 103.234375 59.273438 103.664062 59.679688 103.980469 60.199219 C 104.296875 60.714844 104.457031 61.300781 104.457031 61.945312 C 104.457031 62.597656 104.296875 63.179688 103.980469 63.695312 C 103.664062 64.210938 103.234375 64.621094 102.6875 64.917969 C 102.140625 65.214844 101.523438 65.363281 100.84375 65.363281 Z M 100.84375 64.0625 C 101.234375 64.0625 101.585938 63.972656 101.894531 63.792969 C 102.210938 63.613281 102.457031 63.367188 102.636719 63.042969 C 102.816406 62.722656 102.910156 62.355469 102.910156 61.945312 C 102.910156 61.535156 102.816406 61.175781 102.636719 60.859375 C 102.457031 60.535156 102.210938 60.289062 101.894531 60.109375 C 101.585938 59.925781 101.234375 59.832031 100.84375 59.832031 C 100.453125 59.832031 100.105469 59.925781 99.789062 60.109375 C 99.472656 60.289062 99.226562 60.535156 99.046875 60.859375 C 98.871094 61.175781 98.78125 61.535156 98.78125 61.945312 C 98.78125 62.355469 98.871094 62.722656 99.046875 63.042969 C 99.226562 63.367188 99.472656 63.613281 99.789062 63.792969 C 100.105469 63.972656 100.453125 64.0625 100.84375 64.0625 Z M 100.84375 64.0625 " fill-opacity="1" fill-rule="nonzero"/><path fill="#ffffff" d="M 114.664062 58.644531 L 114.664062 65.246094 L 113.414062 65.246094 L 110.125 61.242188 L 110.125 65.246094 L 108.617188 65.246094 L 108.617188 58.644531 L 109.875 58.644531 L 113.15625 62.652344 L 113.15625 58.644531 Z M 114.664062 58.644531 " fill-opacity="1" fill-rule="nonzero"/><path fill="#ffffff" d="M 125.25 65.246094 L 125.238281 61.285156 L 123.292969 64.550781 L 122.609375 64.550781 L 120.671875 61.375 L 120.671875 65.246094 L 119.246094 65.246094 L 119.246094 58.644531 L 120.503906 58.644531 L 122.972656 62.75 L 125.410156 58.644531 L 126.667969 58.644531 L 126.683594 65.246094 Z M 125.25 65.246094 " fill-opacity="1" fill-rule="nonzero"/><path fill="#ffffff" d="M 135.605469 63.828125 L 132.535156 63.828125 L 131.953125 65.246094 L 130.382812 65.246094 L 133.328125 58.644531 L 134.835938 58.644531 L 137.789062 65.246094 L 136.191406 65.246094 Z M 135.121094 62.667969 L 134.078125 60.144531 L 133.023438 62.667969 Z M 135.121094 62.667969 " fill-opacity="1" fill-rule="nonzero"/><path fill="#ffffff" d="M 143.660156 65.363281 C 143.136719 65.363281 142.628906 65.292969 142.144531 65.148438 C 141.652344 65.007812 141.265625 64.824219 140.972656 64.597656 L 141.492188 63.445312 C 141.769531 63.65625 142.101562 63.820312 142.492188 63.945312 C 142.882812 64.070312 143.277344 64.132812 143.667969 64.132812 C 144.101562 64.132812 144.421875 64.070312 144.632812 63.945312 C 144.839844 63.816406 144.945312 63.640625 144.945312 63.429688 C 144.945312 63.273438 144.882812 63.148438 144.757812 63.042969 C 144.632812 62.9375 144.472656 62.855469 144.285156 62.792969 C 144.09375 62.730469 143.832031 62.660156 143.507812 62.582031 C 143 62.460938 142.589844 62.34375 142.265625 62.222656 C 141.949219 62.105469 141.679688 61.914062 141.445312 61.652344 C 141.214844 61.382812 141.097656 61.03125 141.097656 60.589844 C 141.097656 60.203125 141.203125 59.855469 141.410156 59.546875 C 141.617188 59.238281 141.929688 58.992188 142.347656 58.804688 C 142.769531 58.625 143.28125 58.53125 143.882812 58.53125 C 144.304688 58.53125 144.714844 58.582031 145.113281 58.679688 C 145.515625 58.785156 145.871094 58.929688 146.175781 59.117188 L 145.703125 60.277344 C 145.09375 59.933594 144.484375 59.761719 143.875 59.761719 C 143.445312 59.761719 143.128906 59.828125 142.925781 59.964844 C 142.726562 60.105469 142.625 60.285156 142.625 60.511719 C 142.625 60.738281 142.742188 60.90625 142.972656 61.019531 C 143.207031 61.125 143.570312 61.234375 144.050781 61.339844 C 144.554688 61.460938 144.972656 61.582031 145.292969 61.707031 C 145.613281 61.828125 145.886719 62.011719 146.113281 62.269531 C 146.34375 62.523438 146.460938 62.871094 146.460938 63.3125 C 146.460938 63.691406 146.355469 64.039062 146.140625 64.347656 C 145.929688 64.65625 145.617188 64.902344 145.195312 65.085938 C 144.769531 65.269531 144.257812 65.363281 143.660156 65.363281 Z M 143.660156 65.363281 " fill-opacity="1" fill-rule="nonzero"/><path fill="#ffffff" d="M 151.882812 59.894531 L 149.769531 59.894531 L 149.769531 58.644531 L 155.523438 58.644531 L 155.523438 59.894531 L 153.40625 59.894531 L 153.40625 65.246094 L 151.882812 65.246094 Z M 151.882812 59.894531 " fill-opacity="1" fill-rule="nonzero"/><path fill="#ffffff" d="M 164.464844 64.027344 L 164.464844 65.246094 L 159.355469 65.246094 L 159.355469 58.644531 L 164.339844 58.644531 L 164.339844 59.875 L 160.871094 59.875 L 160.871094 61.304688 L 163.929688 61.304688 L 163.929688 62.492188 L 160.871094 62.492188 L 160.871094 64.027344 Z M 164.464844 64.027344 " fill-opacity="1" fill-rule="nonzero"/><path fill="#ffffff" d="M 172.894531 65.246094 L 171.617188 63.410156 L 170.214844 63.410156 L 170.214844 65.246094 L 168.691406 65.246094 L 168.691406 58.644531 L 171.546875 58.644531 C 172.128906 58.644531 172.632812 58.742188 173.0625 58.941406 C 173.496094 59.136719 173.828125 59.414062 174.0625 59.769531 C 174.292969 60.125 174.410156 60.550781 174.410156 61.046875 C 174.410156 61.535156 174.289062 61.957031 174.054688 62.3125 C 173.820312 62.664062 173.488281 62.933594 173.054688 63.125 L 174.535156 65.246094 Z M 172.867188 61.046875 C 172.867188 60.671875 172.746094 60.386719 172.507812 60.1875 C 172.269531 59.992188 171.921875 59.894531 171.457031 59.894531 L 170.214844 59.894531 L 170.214844 62.195312 L 171.457031 62.195312 C 171.921875 62.195312 172.269531 62.097656 172.507812 61.894531 C 172.746094 61.691406 172.867188 61.410156 172.867188 61.046875 Z M 172.867188 61.046875 " fill-opacity="1" fill-rule="nonzero"/><path fill="#ffffff" d="M 180.800781 65.363281 C 180.273438 65.363281 179.769531 65.292969 179.28125 65.148438 C 178.792969 65.007812 178.402344 64.824219 178.113281 64.597656 L 178.632812 63.445312 C 178.910156 63.65625 179.242188 63.820312 179.628906 63.945312 C 180.023438 64.070312 180.414062 64.132812 180.808594 64.132812 C 181.242188 64.132812 181.5625 64.070312 181.773438 63.945312 C 181.980469 63.816406 182.085938 63.640625 182.085938 63.429688 C 182.085938 63.273438 182.023438 63.148438 181.898438 63.042969 C 181.773438 62.9375 181.613281 62.855469 181.425781 62.792969 C 181.230469 62.730469 180.972656 62.660156 180.648438 62.582031 C 180.140625 62.460938 179.730469 62.34375 179.40625 62.222656 C 179.089844 62.105469 178.820312 61.914062 178.585938 61.652344 C 178.355469 61.382812 178.238281 61.03125 178.238281 60.589844 C 178.238281 60.203125 178.339844 59.855469 178.550781 59.546875 C 178.757812 59.238281 179.070312 58.992188 179.488281 58.804688 C 179.910156 58.625 180.421875 58.53125 181.023438 58.53125 C 181.445312 58.53125 181.855469 58.582031 182.253906 58.679688 C 182.65625 58.785156 183.011719 58.929688 183.316406 59.117188 L 182.84375 60.277344 C 182.234375 59.933594 181.625 59.761719 181.011719 59.761719 C 180.585938 59.761719 180.269531 59.828125 180.066406 59.964844 C 179.863281 60.105469 179.765625 60.285156 179.765625 60.511719 C 179.765625 60.738281 179.878906 60.90625 180.113281 61.019531 C 180.347656 61.125 180.710938 61.234375 181.191406 61.339844 C 181.695312 61.460938 182.109375 61.582031 182.433594 61.707031 C 182.753906 61.828125 183.023438 62.011719 183.253906 62.269531 C 183.484375 62.523438 183.601562 62.871094 183.601562 63.3125 C 183.601562 63.691406 183.492188 64.039062 183.28125 64.347656 C 183.070312 64.65625 182.753906 64.902344 182.332031 65.085938 C 181.910156 65.269531 181.398438 65.363281 180.800781 65.363281 Z M 180.800781 65.363281 " fill-opacity="1" fill-rule="nonzero"/><path fill="#ffffff" d="M 47.332031 111.902344 L 47.324219 108.414062 L 45.609375 111.289062 L 45.003906 111.289062 L 43.308594 108.496094 L 43.308594 111.902344 L 42.042969 111.902344 L 42.042969 106.097656 L 43.15625 106.097656 L 45.324219 109.710938 L 47.464844 106.097656 L 48.574219 106.097656 L 48.589844 111.902344 Z M 47.332031 111.902344 " fill-opacity="1" fill-rule="nonzero"/><path fill="#ffffff" d="M 56.433594 110.664062 L 53.738281 110.664062 L 53.222656 111.902344 L 51.847656 111.902344 L 54.433594 106.097656 L 55.765625 106.097656 L 58.359375 111.902344 L 56.949219 111.902344 Z M 56.003906 109.636719 L 55.085938 107.417969 L 54.167969 109.636719 Z M 56.003906 109.636719 " fill-opacity="1" fill-rule="nonzero"/><path fill="#ffffff" d="M 63.511719 112.003906 C 63.050781 112.003906 62.609375 111.941406 62.183594 111.816406 C 61.753906 111.691406 61.410156 111.53125 61.148438 111.332031 L 61.601562 110.316406 C 61.851562 110.5 62.148438 110.652344 62.484375 110.761719 C 62.828125 110.871094 63.175781 110.921875 63.519531 110.921875 C 63.898438 110.921875 64.183594 110.867188 64.367188 110.753906 C 64.550781 110.640625 64.644531 110.492188 64.644531 110.308594 C 64.644531 110.164062 64.585938 110.046875 64.476562 109.960938 C 64.367188 109.871094 64.230469 109.796875 64.066406 109.746094 C 63.898438 109.6875 63.667969 109.625 63.378906 109.558594 C 62.9375 109.449219 62.574219 109.347656 62.289062 109.246094 C 62.007812 109.136719 61.769531 108.96875 61.566406 108.738281 C 61.363281 108.503906 61.261719 108.195312 61.261719 107.808594 C 61.261719 107.46875 61.351562 107.164062 61.53125 106.890625 C 61.714844 106.617188 61.992188 106.398438 62.359375 106.238281 C 62.730469 106.078125 63.175781 105.996094 63.707031 105.996094 C 64.082031 105.996094 64.445312 106.042969 64.796875 106.132812 C 65.152344 106.222656 65.460938 106.351562 65.722656 106.515625 L 65.3125 107.53125 C 64.777344 107.230469 64.238281 107.078125 63.699219 107.078125 C 63.324219 107.078125 63.046875 107.140625 62.871094 107.265625 C 62.691406 107.386719 62.601562 107.542969 62.601562 107.738281 C 62.601562 107.941406 62.703125 108.089844 62.914062 108.183594 C 63.121094 108.28125 63.4375 108.375 63.859375 108.46875 C 64.304688 108.578125 64.667969 108.683594 64.949219 108.789062 C 65.226562 108.894531 65.46875 109.054688 65.671875 109.28125 C 65.871094 109.507812 65.972656 109.8125 65.972656 110.199219 C 65.972656 110.535156 65.878906 110.839844 65.699219 111.109375 C 65.511719 111.382812 65.234375 111.601562 64.859375 111.761719 C 64.488281 111.921875 64.039062 112.003906 63.511719 112.003906 Z M 63.511719 112.003906 " fill-opacity="1" fill-rule="nonzero"/><path fill="#ffffff" d="M 70.742188 107.195312 L 68.886719 107.195312 L 68.886719 106.097656 L 73.945312 106.097656 L 73.945312 107.195312 L 72.089844 107.195312 L 72.089844 111.902344 L 70.742188 111.902344 Z M 70.742188 107.195312 " fill-opacity="1" fill-rule="nonzero"/><path fill="#ffffff" d="M 81.804688 110.824219 L 81.804688 111.902344 L 77.308594 111.902344 L 77.308594 106.097656 L 81.699219 106.097656 L 81.699219 107.175781 L 78.644531 107.175781 L 78.644531 108.433594 L 81.339844 108.433594 L 81.339844 109.476562 L 78.644531 109.476562 L 78.644531 110.824219 Z M 81.804688 110.824219 " fill-opacity="1" fill-rule="nonzero"/><path fill="#ffffff" d="M 89.21875 111.902344 L 88.097656 110.289062 L 86.863281 110.289062 L 86.863281 111.902344 L 85.515625 111.902344 L 85.515625 106.097656 L 88.035156 106.097656 C 88.542969 106.097656 88.992188 106.183594 89.371094 106.355469 C 89.75 106.527344 90.042969 106.773438 90.246094 107.085938 C 90.453125 107.402344 90.558594 107.773438 90.558594 108.203125 C 90.558594 108.636719 90.453125 109.011719 90.246094 109.324219 C 90.035156 109.636719 89.742188 109.875 89.363281 110.039062 L 90.664062 111.902344 Z M 89.191406 108.203125 C 89.191406 107.875 89.085938 107.625 88.871094 107.453125 C 88.664062 107.28125 88.359375 107.195312 87.960938 107.195312 L 86.863281 107.195312 L 86.863281 109.21875 L 87.960938 109.21875 C 88.359375 109.21875 88.664062 109.128906 88.871094 108.949219 C 89.085938 108.773438 89.191406 108.523438 89.191406 108.203125 Z M 89.191406 108.203125 " fill-opacity="1" fill-rule="nonzero"/><path fill="#ffffff" d="M 94.257812 106.097656 L 95.605469 106.097656 L 95.605469 111.902344 L 94.257812 111.902344 Z M 94.257812 106.097656 " fill-opacity="1" fill-rule="nonzero"/><path fill="#ffffff" d="M 104.949219 106.097656 L 104.949219 111.902344 L 103.851562 111.902344 L 100.953125 108.378906 L 100.953125 111.902344 L 99.625 111.902344 L 99.625 106.097656 L 100.738281 106.097656 L 103.621094 109.621094 L 103.621094 106.097656 Z M 104.949219 106.097656 " fill-opacity="1" fill-rule="nonzero"/><path fill="#ffffff" d="M 112.894531 108.90625 L 114.125 108.90625 L 114.125 111.261719 C 113.808594 111.5 113.441406 111.6875 113.027344 111.816406 C 112.609375 111.941406 112.195312 112.003906 111.777344 112.003906 C 111.171875 112.003906 110.628906 111.875 110.144531 111.617188 C 109.664062 111.363281 109.285156 111.007812 109.011719 110.546875 C 108.738281 110.089844 108.601562 109.574219 108.601562 109.003906 C 108.601562 108.429688 108.738281 107.910156 109.011719 107.453125 C 109.285156 106.996094 109.667969 106.636719 110.15625 106.382812 C 110.640625 106.128906 111.191406 105.996094 111.796875 105.996094 C 112.308594 105.996094 112.769531 106.085938 113.179688 106.257812 C 113.59375 106.429688 113.945312 106.675781 114.230469 106.996094 L 113.367188 107.800781 C 112.949219 107.359375 112.449219 107.140625 111.867188 107.140625 C 111.492188 107.140625 111.164062 107.21875 110.878906 107.371094 C 110.59375 107.527344 110.367188 107.746094 110.207031 108.03125 C 110.046875 108.3125 109.96875 108.636719 109.96875 109.003906 C 109.96875 109.363281 110.046875 109.683594 110.207031 109.96875 C 110.367188 110.25 110.59375 110.46875 110.878906 110.628906 C 111.164062 110.785156 111.488281 110.859375 111.851562 110.859375 C 112.234375 110.859375 112.582031 110.777344 112.894531 110.609375 Z M 112.894531 108.90625 " fill-opacity="1" fill-rule="nonzero"/><path fill="#ffffff" d="M 124.203125 107.195312 L 122.347656 107.195312 L 122.347656 106.097656 L 127.40625 106.097656 L 127.40625 107.195312 L 125.550781 107.195312 L 125.550781 111.902344 L 124.203125 111.902344 Z M 124.203125 107.195312 " fill-opacity="1" fill-rule="nonzero"/><path fill="#ffffff" d="M 136.09375 106.097656 L 136.09375 111.902344 L 134.757812 111.902344 L 134.757812 109.523438 L 132.117188 109.523438 L 132.117188 111.902344 L 130.769531 111.902344 L 130.769531 106.097656 L 132.117188 106.097656 L 132.117188 108.390625 L 134.757812 108.390625 L 134.757812 106.097656 Z M 136.09375 106.097656 " fill-opacity="1" fill-rule="nonzero"/><path fill="#ffffff" d="M 144.609375 110.824219 L 144.609375 111.902344 L 140.113281 111.902344 L 140.113281 106.097656 L 144.503906 106.097656 L 144.503906 107.175781 L 141.453125 107.175781 L 141.453125 108.433594 L 144.148438 108.433594 L 144.148438 109.476562 L 141.453125 109.476562 L 141.453125 110.824219 Z M 144.609375 110.824219 " fill-opacity="1" fill-rule="nonzero"/><path fill="#ffffff" d="M 157.144531 110.664062 L 154.449219 110.664062 L 153.933594 111.902344 L 152.558594 111.902344 L 155.144531 106.097656 L 156.472656 106.097656 L 159.070312 111.902344 L 157.660156 111.902344 Z M 156.714844 109.636719 L 155.796875 107.417969 L 154.878906 109.636719 Z M 156.714844 109.636719 " fill-opacity="1" fill-rule="nonzero"/><path fill="#ffffff" d="M 166.015625 111.902344 L 164.890625 110.289062 L 163.660156 110.289062 L 163.660156 111.902344 L 162.3125 111.902344 L 162.3125 106.097656 L 164.828125 106.097656 C 165.339844 106.097656 165.785156 106.183594 166.167969 106.355469 C 166.546875 106.527344 166.839844 106.773438 167.042969 107.085938 C 167.25 107.402344 167.355469 107.773438 167.355469 108.203125 C 167.355469 108.636719 167.25 109.011719 167.042969 109.324219 C 166.832031 109.636719 166.539062 109.875 166.160156 110.039062 L 167.460938 111.902344 Z M 165.988281 108.203125 C 165.988281 107.875 165.882812 107.625 165.667969 107.453125 C 165.457031 107.28125 165.15625 107.195312 164.757812 107.195312 L 163.660156 107.195312 L 163.660156 109.21875 L 164.757812 109.21875 C 165.15625 109.21875 165.457031 109.128906 165.667969 108.949219 C 165.882812 108.773438 165.988281 108.523438 165.988281 108.203125 Z M 165.988281 108.203125 " fill-opacity="1" fill-rule="nonzero"/><path fill="#ffffff" d="M 172.257812 107.195312 L 170.402344 107.195312 L 170.402344 106.097656 L 175.460938 106.097656 L 175.460938 107.195312 L 173.605469 107.195312 L 173.605469 111.902344 L 172.257812 111.902344 Z M 172.257812 107.195312 " fill-opacity="1" fill-rule="nonzero"/><path fill="#ffffff" d="M 186.625 112.003906 C 186.023438 112.003906 185.480469 111.875 184.992188 111.617188 C 184.511719 111.359375 184.132812 111 183.859375 110.539062 C 183.585938 110.082031 183.449219 109.570312 183.449219 109.003906 C 183.449219 108.433594 183.585938 107.921875 183.859375 107.460938 C 184.132812 107.003906 184.511719 106.648438 184.992188 106.390625 C 185.480469 106.128906 186.023438 105.996094 186.625 105.996094 C 187.234375 105.996094 187.777344 106.128906 188.257812 106.390625 C 188.742188 106.648438 189.117188 107.003906 189.390625 107.460938 C 189.671875 107.921875 189.8125 108.433594 189.8125 109.003906 C 189.8125 109.570312 189.671875 110.082031 189.390625 110.539062 C 189.117188 111 188.742188 111.359375 188.257812 111.617188 C 187.777344 111.875 187.234375 112.003906 186.625 112.003906 Z M 186.625 110.859375 C 186.96875 110.859375 187.28125 110.785156 187.554688 110.628906 C 187.832031 110.46875 188.050781 110.25 188.203125 109.96875 C 188.367188 109.683594 188.445312 109.363281 188.445312 109.003906 C 188.445312 108.644531 188.367188 108.320312 188.203125 108.039062 C 188.050781 107.753906 187.832031 107.535156 187.554688 107.378906 C 187.28125 107.21875 186.96875 107.140625 186.625 107.140625 C 186.285156 107.140625 185.976562 107.21875 185.699219 107.378906 C 185.421875 107.535156 185.207031 107.753906 185.046875 108.039062 C 184.890625 108.320312 184.816406 108.644531 184.816406 109.003906 C 184.816406 109.363281 184.890625 109.683594 185.046875 109.96875 C 185.207031 110.25 185.421875 110.46875 185.699219 110.628906 C 185.976562 110.785156 186.285156 110.859375 186.625 110.859375 Z M 186.625 110.859375 " fill-opacity="1" fill-rule="nonzero"/><path fill="#ffffff" d="M 194.804688 107.175781 L 194.804688 108.710938 L 197.492188 108.710938 L 197.492188 109.789062 L 194.804688 109.789062 L 194.804688 111.902344 L 193.460938 111.902344 L 193.460938 106.097656 L 197.847656 106.097656 L 197.847656 107.175781 Z M 194.804688 107.175781 " fill-opacity="1" fill-rule="nonzero"/><path fill="#ffffff" d="M 57.320312 123.566406 C 56.859375 123.566406 56.417969 123.503906 55.992188 123.378906 C 55.5625 123.253906 55.21875 123.09375 54.957031 122.894531 L 55.410156 121.878906 C 55.660156 122.0625 55.957031 122.214844 56.292969 122.324219 C 56.636719 122.433594 56.984375 122.484375 57.328125 122.484375 C 57.707031 122.484375 57.992188 122.429688 58.175781 122.316406 C 58.359375 122.203125 58.453125 122.054688 58.453125 121.871094 C 58.453125 121.726562 58.394531 121.609375 58.285156 121.523438 C 58.175781 121.433594 58.039062 121.359375 57.875 121.308594 C 57.707031 121.25 57.476562 121.1875 57.1875 121.121094 C 56.746094 121.011719 56.382812 120.910156 56.097656 120.808594 C 55.816406 120.699219 55.574219 120.53125 55.375 120.300781 C 55.171875 120.066406 55.070312 119.757812 55.070312 119.371094 C 55.070312 119.03125 55.160156 118.726562 55.339844 118.453125 C 55.523438 118.179688 55.800781 117.960938 56.167969 117.800781 C 56.539062 117.640625 56.984375 117.558594 57.515625 117.558594 C 57.890625 117.558594 58.253906 117.605469 58.605469 117.695312 C 58.960938 117.785156 59.269531 117.914062 59.53125 118.078125 L 59.121094 119.09375 C 58.585938 118.792969 58.046875 118.640625 57.507812 118.640625 C 57.132812 118.640625 56.855469 118.703125 56.679688 118.828125 C 56.5 118.949219 56.410156 119.105469 56.410156 119.300781 C 56.410156 119.503906 56.511719 119.652344 56.722656 119.746094 C 56.929688 119.84375 57.246094 119.9375 57.667969 120.03125 C 58.113281 120.140625 58.476562 120.246094 58.757812 120.351562 C 59.035156 120.457031 59.277344 120.617188 59.480469 120.84375 C 59.679688 121.070312 59.78125 121.375 59.78125 121.761719 C 59.78125 122.097656 59.6875 122.402344 59.507812 122.671875 C 59.320312 122.945312 59.042969 123.164062 58.667969 123.324219 C 58.296875 123.484375 57.847656 123.566406 57.320312 123.566406 Z M 57.320312 123.566406 " fill-opacity="1" fill-rule="nonzero"/><path fill="#ffffff" d="M 64.550781 118.757812 L 62.695312 118.757812 L 62.695312 117.660156 L 67.753906 117.660156 L 67.753906 118.757812 L 65.898438 118.757812 L 65.898438 123.464844 L 64.550781 123.464844 Z M 64.550781 118.757812 " fill-opacity="1" fill-rule="nonzero"/><path fill="#ffffff" d="M 73.925781 123.566406 C 73.324219 123.566406 72.78125 123.4375 72.292969 123.179688 C 71.8125 122.921875 71.433594 122.5625 71.160156 122.101562 C 70.886719 121.644531 70.75 121.132812 70.75 120.566406 C 70.75 119.996094 70.886719 119.484375 71.160156 119.023438 C 71.433594 118.566406 71.8125 118.210938 72.292969 117.953125 C 72.78125 117.691406 73.324219 117.558594 73.925781 117.558594 C 74.535156 117.558594 75.078125 117.691406 75.558594 117.953125 C 76.042969 118.210938 76.417969 118.566406 76.691406 119.023438 C 76.972656 119.484375 77.113281 119.996094 77.113281 120.566406 C 77.113281 121.132812 76.972656 121.644531 76.691406 122.101562 C 76.417969 122.5625 76.042969 122.921875 75.558594 123.179688 C 75.078125 123.4375 74.535156 123.566406 73.925781 123.566406 Z M 73.925781 122.421875 C 74.269531 122.421875 74.582031 122.347656 74.855469 122.191406 C 75.132812 122.03125 75.351562 121.8125 75.507812 121.53125 C 75.667969 121.246094 75.746094 120.925781 75.746094 120.566406 C 75.746094 120.207031 75.667969 119.882812 75.507812 119.605469 C 75.351562 119.316406 75.132812 119.097656 74.855469 118.945312 C 74.582031 118.78125 74.269531 118.703125 73.925781 118.703125 C 73.589844 118.703125 73.277344 118.78125 73 118.945312 C 72.726562 119.097656 72.507812 119.316406 72.347656 119.605469 C 72.191406 119.882812 72.117188 120.207031 72.117188 120.566406 C 72.117188 120.925781 72.191406 121.246094 72.347656 121.53125 C 72.507812 121.8125 72.726562 122.03125 73 122.191406 C 73.277344 122.347656 73.589844 122.421875 73.925781 122.421875 Z M 73.925781 122.421875 " fill-opacity="1" fill-rule="nonzero"/><path fill="#ffffff" d="M 84.460938 123.464844 L 83.339844 121.851562 L 82.109375 121.851562 L 82.109375 123.464844 L 80.761719 123.464844 L 80.761719 117.660156 L 83.277344 117.660156 C 83.785156 117.660156 84.234375 117.746094 84.613281 117.917969 C 84.992188 118.089844 85.285156 118.335938 85.488281 118.648438 C 85.695312 118.964844 85.800781 119.335938 85.800781 119.765625 C 85.800781 120.199219 85.695312 120.574219 85.488281 120.886719 C 85.277344 121.199219 84.984375 121.4375 84.605469 121.601562 L 85.90625 123.464844 Z M 84.4375 119.765625 C 84.4375 119.4375 84.328125 119.1875 84.113281 119.015625 C 83.90625 118.84375 83.601562 118.757812 83.203125 118.757812 L 82.109375 118.757812 L 82.109375 120.78125 L 83.203125 120.78125 C 83.601562 120.78125 83.90625 120.691406 84.113281 120.511719 C 84.328125 120.335938 84.4375 120.085938 84.4375 119.765625 Z M 84.4375 119.765625 " fill-opacity="1" fill-rule="nonzero"/><path fill="#ffffff" d="M 89.5 117.660156 L 90.847656 117.660156 L 90.847656 123.464844 L 89.5 123.464844 Z M 89.5 117.660156 " fill-opacity="1" fill-rule="nonzero"/><path fill="#ffffff" d="M 99.363281 122.386719 L 99.363281 123.464844 L 94.867188 123.464844 L 94.867188 117.660156 L 99.253906 117.660156 L 99.253906 118.738281 L 96.203125 118.738281 L 96.203125 119.996094 L 98.898438 119.996094 L 98.898438 121.039062 L 96.203125 121.039062 L 96.203125 122.386719 Z M 99.363281 122.386719 " fill-opacity="1" fill-rule="nonzero"/><path fill="#ffffff" d="M 104.984375 123.566406 C 104.523438 123.566406 104.082031 123.503906 103.65625 123.378906 C 103.226562 123.253906 102.882812 123.09375 102.621094 122.894531 L 103.074219 121.878906 C 103.324219 122.0625 103.621094 122.214844 103.957031 122.324219 C 104.300781 122.433594 104.648438 122.484375 104.992188 122.484375 C 105.371094 122.484375 105.65625 122.429688 105.839844 122.316406 C 106.023438 122.203125 106.117188 122.054688 106.117188 121.871094 C 106.117188 121.726562 106.058594 121.609375 105.949219 121.523438 C 105.839844 121.433594 105.703125 121.359375 105.539062 121.308594 C 105.371094 121.25 105.140625 121.1875 104.851562 121.121094 C 104.410156 121.011719 104.046875 120.910156 103.761719 120.808594 C 103.480469 120.699219 103.242188 120.53125 103.039062 120.300781 C 102.835938 120.066406 102.734375 119.757812 102.734375 119.371094 C 102.734375 119.03125 102.824219 118.726562 103.003906 118.453125 C 103.1875 118.179688 103.464844 117.960938 103.832031 117.800781 C 104.203125 117.640625 104.648438 117.558594 105.179688 117.558594 C 105.554688 117.558594 105.917969 117.605469 106.269531 117.695312 C 106.625 117.785156 106.933594 117.914062 107.195312 118.078125 L 106.785156 119.09375 C 106.25 118.792969 105.710938 118.640625 105.171875 118.640625 C 104.796875 118.640625 104.519531 118.703125 104.34375 118.828125 C 104.164062 118.949219 104.074219 119.105469 104.074219 119.300781 C 104.074219 119.503906 104.175781 119.652344 104.386719 119.746094 C 104.59375 119.84375 104.910156 119.9375 105.332031 120.03125 C 105.777344 120.140625 106.140625 120.246094 106.421875 120.351562 C 106.699219 120.457031 106.941406 120.617188 107.144531 120.84375 C 107.34375 121.070312 107.445312 121.375 107.445312 121.761719 C 107.445312 122.097656 107.351562 122.402344 107.171875 122.671875 C 106.984375 122.945312 106.707031 123.164062 106.332031 123.324219 C 105.960938 123.484375 105.511719 123.566406 104.984375 123.566406 Z M 104.984375 123.566406 " fill-opacity="1" fill-rule="nonzero"/><path fill="#ffffff" d="M 116.003906 117.660156 L 117.351562 117.660156 L 117.351562 123.464844 L 116.003906 123.464844 Z M 116.003906 117.660156 " fill-opacity="1" fill-rule="nonzero"/><path fill="#ffffff" d="M 126.695312 117.660156 L 126.695312 123.464844 L 125.597656 123.464844 L 122.699219 119.941406 L 122.699219 123.464844 L 121.371094 123.464844 L 121.371094 117.660156 L 122.484375 117.660156 L 125.367188 121.183594 L 125.367188 117.660156 Z M 126.695312 117.660156 " fill-opacity="1" fill-rule="nonzero"/><path fill="#ffffff" d="M 140.996094 123.464844 L 140.988281 119.976562 L 139.277344 122.851562 L 138.667969 122.851562 L 136.972656 120.058594 L 136.972656 123.464844 L 135.707031 123.464844 L 135.707031 117.660156 L 136.820312 117.660156 L 138.988281 121.273438 L 141.132812 117.660156 L 142.238281 117.660156 L 142.253906 123.464844 Z M 140.996094 123.464844 " fill-opacity="1" fill-rule="nonzero"/><path fill="#ffffff" d="M 149.082031 123.566406 C 148.480469 123.566406 147.933594 123.4375 147.449219 123.179688 C 146.964844 122.921875 146.585938 122.5625 146.316406 122.101562 C 146.042969 121.644531 145.90625 121.132812 145.90625 120.566406 C 145.90625 119.996094 146.042969 119.484375 146.316406 119.023438 C 146.585938 118.566406 146.964844 118.210938 147.449219 117.953125 C 147.933594 117.691406 148.480469 117.558594 149.082031 117.558594 C 149.6875 117.558594 150.230469 117.691406 150.714844 117.953125 C 151.195312 118.210938 151.574219 118.566406 151.847656 119.023438 C 152.125 119.484375 152.265625 119.996094 152.265625 120.566406 C 152.265625 121.132812 152.125 121.644531 151.847656 122.101562 C 151.574219 122.5625 151.195312 122.921875 150.714844 123.179688 C 150.230469 123.4375 149.6875 123.566406 149.082031 123.566406 Z M 149.082031 122.421875 C 149.425781 122.421875 149.734375 122.347656 150.007812 122.191406 C 150.289062 122.03125 150.503906 121.8125 150.660156 121.53125 C 150.820312 121.246094 150.902344 120.925781 150.902344 120.566406 C 150.902344 120.207031 150.820312 119.882812 150.660156 119.605469 C 150.503906 119.316406 150.289062 119.097656 150.007812 118.945312 C 149.734375 118.78125 149.425781 118.703125 149.082031 118.703125 C 148.742188 118.703125 148.433594 118.78125 148.152344 118.945312 C 147.878906 119.097656 147.664062 119.316406 147.503906 119.605469 C 147.347656 119.882812 147.269531 120.207031 147.269531 120.566406 C 147.269531 120.925781 147.347656 121.246094 147.503906 121.53125 C 147.664062 121.8125 147.878906 122.03125 148.152344 122.191406 C 148.433594 122.347656 148.742188 122.421875 149.082031 122.421875 Z M 149.082031 122.421875 " fill-opacity="1" fill-rule="nonzero"/><path fill="#ffffff" d="M 157.117188 118.757812 L 155.261719 118.757812 L 155.261719 117.660156 L 160.320312 117.660156 L 160.320312 118.757812 L 158.464844 118.757812 L 158.464844 123.464844 L 157.117188 123.464844 Z M 157.117188 118.757812 " fill-opacity="1" fill-rule="nonzero"/><path fill="#ffffff" d="M 163.683594 117.660156 L 165.03125 117.660156 L 165.03125 123.464844 L 163.683594 123.464844 Z M 163.683594 117.660156 " fill-opacity="1" fill-rule="nonzero"/><path fill="#ffffff" d="M 171.859375 123.566406 C 171.257812 123.566406 170.714844 123.4375 170.226562 123.179688 C 169.746094 122.921875 169.367188 122.5625 169.09375 122.101562 C 168.820312 121.644531 168.683594 121.132812 168.683594 120.566406 C 168.683594 119.996094 168.820312 119.484375 169.09375 119.023438 C 169.367188 118.566406 169.746094 118.210938 170.226562 117.953125 C 170.714844 117.691406 171.257812 117.558594 171.859375 117.558594 C 172.46875 117.558594 173.011719 117.691406 173.492188 117.953125 C 173.976562 118.210938 174.351562 118.566406 174.625 119.023438 C 174.90625 119.484375 175.046875 119.996094 175.046875 120.566406 C 175.046875 121.132812 174.90625 121.644531 174.625 122.101562 C 174.351562 122.5625 173.976562 122.921875 173.492188 123.179688 C 173.011719 123.4375 172.46875 123.566406 171.859375 123.566406 Z M 171.859375 122.421875 C 172.203125 122.421875 172.515625 122.347656 172.789062 122.191406 C 173.066406 122.03125 173.285156 121.8125 173.4375 121.53125 C 173.601562 121.246094 173.679688 120.925781 173.679688 120.566406 C 173.679688 120.207031 173.601562 119.882812 173.4375 119.605469 C 173.285156 119.316406 173.066406 119.097656 172.789062 118.945312 C 172.515625 118.78125 172.203125 118.703125 171.859375 118.703125 C 171.519531 118.703125 171.210938 118.78125 170.933594 118.945312 C 170.65625 119.097656 170.441406 119.316406 170.28125 119.605469 C 170.125 119.882812 170.050781 120.207031 170.050781 120.566406 C 170.050781 120.925781 170.125 121.246094 170.28125 121.53125 C 170.441406 121.8125 170.65625 122.03125 170.933594 122.191406 C 171.210938 122.347656 171.519531 122.421875 171.859375 122.421875 Z M 171.859375 122.421875 " fill-opacity="1" fill-rule="nonzero"/><path fill="#ffffff" d="M 184.019531 117.660156 L 184.019531 123.464844 L 182.921875 123.464844 L 180.023438 119.941406 L 180.023438 123.464844 L 178.695312 123.464844 L 178.695312 117.660156 L 179.808594 117.660156 L 182.691406 121.183594 L 182.691406 117.660156 Z M 184.019531 117.660156 " fill-opacity="1" fill-rule="nonzero"/></svg>