<svg xmlns="http://www.w3.org/2000/svg" xmlns:xlink="http://www.w3.org/1999/xlink" width="500" zoomAndPan="magnify" viewBox="0 0 375 374.999991" height="500" preserveAspectRatio="xMidYMid meet" version="1.0"><defs><clipPath id="29cdfadbc9"><path d="M 78.277344 172.078125 L 298.222656 172.078125 L 298.222656 197.695312 L 78.277344 197.695312 Z M 78.277344 172.078125 " clip-rule="nonzero"/></clipPath></defs><rect x="-37.5" width="450" fill="#ffffff" y="-37.499999" height="449.999989" fill-opacity="1"/><rect x="-37.5" width="450" fill="#000000" y="-37.499999" height="449.999989" fill-opacity="1"/><path stroke-linecap="butt" transform="matrix(0, -0.75, 0.75, 0, 185.996198, 259.032434)" fill="none" stroke-linejoin="miter" d="M 0.00157892 1.999861 L 206.121384 1.999861 " stroke="#ffffff" stroke-width="4" stroke-opacity="1" stroke-miterlimit="4"/><path fill="#ffffff" d="M 74.433594 134.886719 L 89.574219 134.886719 L 125.714844 210.746094 L 153.949219 134.886719 L 170.511719 134.886719 L 170.511719 135.824219 C 167.8125 135.824219 165.847656 136.644531 164.621094 138.277344 C 163.402344 139.902344 162.636719 142.554688 162.324219 146.230469 C 162.011719 149.898438 161.855469 154.835938 161.855469 161.042969 L 161.855469 202.839844 C 161.855469 208.988281 162.011719 213.914062 162.324219 217.621094 C 162.636719 221.320312 163.402344 223.988281 164.621094 225.621094 C 165.847656 227.246094 167.8125 228.058594 170.511719 228.058594 L 170.511719 228.996094 L 145.105469 228.996094 L 145.105469 228.058594 C 147.800781 228.058594 149.761719 227.246094 150.980469 225.621094 C 152.207031 223.988281 152.980469 221.320312 153.292969 217.621094 C 153.605469 213.914062 153.761719 208.988281 153.761719 202.839844 L 153.761719 137.996094 C 150.375 147.027344 147.015625 156.035156 143.683594 165.011719 C 140.359375 173.980469 136.972656 183.160156 133.527344 192.542969 C 130.078125 201.917969 126.40625 211.777344 122.511719 222.121094 L 121.667969 222.121094 C 118.71875 215.789062 115.972656 209.910156 113.433594 204.480469 C 110.890625 199.054688 108.472656 193.863281 106.183594 188.902344 C 103.902344 183.945312 101.597656 179.007812 99.277344 174.089844 C 96.953125 169.164062 94.566406 164.050781 92.121094 158.746094 C 89.671875 153.445312 87.003906 147.722656 84.121094 141.574219 L 84.027344 181.949219 L 84.027344 193.886719 C 84.027344 200.730469 84.464844 206.382812 85.339844 210.839844 C 86.222656 215.289062 87.417969 218.769531 88.917969 221.277344 C 90.425781 223.789062 92.121094 225.550781 93.996094 226.558594 C 95.878906 227.558594 97.828125 228.058594 99.839844 228.058594 L 99.839844 228.996094 L 74.433594 228.996094 L 74.433594 228.058594 C 77.128906 228.058594 79.089844 227.246094 80.308594 225.621094 C 81.535156 223.988281 82.308594 221.320312 82.621094 217.621094 C 82.933594 213.914062 83.089844 208.988281 83.089844 202.839844 L 83.089844 161.042969 C 83.089844 154.835938 82.933594 149.898438 82.621094 146.230469 C 82.308594 142.554688 81.535156 139.902344 80.308594 138.277344 C 79.089844 136.644531 77.128906 135.824219 74.433594 135.824219 Z M 74.433594 134.886719 " fill-opacity="1" fill-rule="nonzero"/><path fill="#ffffff" d="M 203.734375 134.886719 L 218.875 134.886719 L 255.015625 210.746094 L 283.25 134.886719 L 299.8125 134.886719 L 299.8125 135.824219 C 297.113281 135.824219 295.148438 136.644531 293.921875 138.277344 C 292.703125 139.902344 291.9375 142.554688 291.625 146.230469 C 291.3125 149.898438 291.15625 154.835938 291.15625 161.042969 L 291.15625 202.839844 C 291.15625 208.988281 291.3125 213.914062 291.625 217.621094 C 291.9375 221.320312 292.703125 223.988281 293.921875 225.621094 C 295.148438 227.246094 297.113281 228.058594 299.8125 228.058594 L 299.8125 228.996094 L 274.40625 228.996094 L 274.40625 228.058594 C 277.101562 228.058594 279.0625 227.246094 280.28125 225.621094 C 281.507812 223.988281 282.28125 221.320312 282.59375 217.621094 C 282.90625 213.914062 283.0625 208.988281 283.0625 202.839844 L 283.0625 137.996094 C 279.675781 147.027344 276.316406 156.035156 272.984375 165.011719 C 269.660156 173.980469 266.273438 183.160156 262.828125 192.542969 C 259.378906 201.917969 255.707031 211.777344 251.8125 222.121094 L 250.96875 222.121094 C 248.019531 215.789062 245.273438 209.910156 242.734375 204.480469 C 240.191406 199.054688 237.773438 193.863281 235.484375 188.902344 C 233.203125 183.945312 230.898438 179.007812 228.578125 174.089844 C 226.253906 169.164062 223.867188 164.050781 221.421875 158.746094 C 218.972656 153.445312 216.304688 147.722656 213.421875 141.574219 L 213.328125 181.949219 L 213.328125 193.886719 C 213.328125 200.730469 213.765625 206.382812 214.640625 210.839844 C 215.523438 215.289062 216.71875 218.769531 218.21875 221.277344 C 219.726562 223.789062 221.421875 225.550781 223.296875 226.558594 C 225.179688 227.558594 227.128906 228.058594 229.140625 228.058594 L 229.140625 228.996094 L 203.734375 228.996094 L 203.734375 228.058594 C 206.429688 228.058594 208.390625 227.246094 209.609375 225.621094 C 210.835938 223.988281 211.609375 221.320312 211.921875 217.621094 C 212.234375 213.914062 212.390625 208.988281 212.390625 202.839844 L 212.390625 161.042969 C 212.390625 154.835938 212.234375 149.898438 211.921875 146.230469 C 211.609375 142.554688 210.835938 139.902344 209.609375 138.277344 C 208.390625 136.644531 206.429688 135.824219 203.734375 135.824219 Z M 203.734375 134.886719 " fill-opacity="1" fill-rule="nonzero"/><g clip-path="url(#29cdfadbc9)"><path fill="#000000" d="M 78.277344 172.078125 L 298.21875 172.078125 L 298.21875 197.695312 L 78.277344 197.695312 Z M 78.277344 172.078125 " fill-opacity="1" fill-rule="nonzero"/></g><path fill="#ffffff" d="M 89.609375 190.871094 L 89.59375 183.933594 L 86.1875 189.652344 L 84.984375 189.652344 L 81.59375 184.089844 L 81.59375 190.871094 L 79.09375 190.871094 L 79.09375 179.308594 L 81.296875 179.308594 L 85.625 186.496094 L 89.890625 179.308594 L 92.09375 179.308594 L 92.125 190.871094 Z M 89.609375 190.871094 " fill-opacity="1" fill-rule="nonzero"/><path fill="#ffffff" d="M 105.730469 191.074219 C 104.53125 191.074219 103.449219 190.816406 102.480469 190.292969 C 101.519531 189.773438 100.765625 189.058594 100.214844 188.152344 C 99.671875 187.246094 99.402344 186.226562 99.402344 185.089844 C 99.402344 183.957031 99.671875 182.933594 100.214844 182.027344 C 100.765625 181.121094 101.519531 180.410156 102.480469 179.886719 C 103.449219 179.367188 104.53125 179.105469 105.730469 179.105469 C 106.925781 179.105469 108.003906 179.367188 108.964844 179.886719 C 109.921875 180.410156 110.675781 181.121094 111.230469 182.027344 C 111.78125 182.933594 112.058594 183.957031 112.058594 185.089844 C 112.058594 186.226562 111.78125 187.246094 111.230469 188.152344 C 110.675781 189.058594 109.921875 189.773438 108.964844 190.292969 C 108.003906 190.816406 106.925781 191.074219 105.730469 191.074219 Z M 105.730469 188.792969 C 106.417969 188.792969 107.03125 188.636719 107.574219 188.324219 C 108.125 188.011719 108.558594 187.574219 108.871094 187.011719 C 109.191406 186.449219 109.355469 185.808594 109.355469 185.089844 C 109.355469 184.371094 109.191406 183.738281 108.871094 183.183594 C 108.558594 182.621094 108.125 182.183594 107.574219 181.871094 C 107.03125 181.550781 106.417969 181.386719 105.730469 181.386719 C 105.050781 181.386719 104.4375 181.550781 103.886719 181.871094 C 103.332031 182.183594 102.902344 182.621094 102.589844 183.183594 C 102.277344 183.738281 102.121094 184.371094 102.121094 185.089844 C 102.121094 185.808594 102.277344 186.449219 102.589844 187.011719 C 102.902344 187.574219 103.332031 188.011719 103.886719 188.324219 C 104.4375 188.636719 105.050781 188.792969 105.730469 188.792969 Z M 105.730469 188.792969 " fill-opacity="1" fill-rule="nonzero"/><path fill="#ffffff" d="M 121.734375 181.496094 L 118.03125 181.496094 L 118.03125 179.308594 L 128.109375 179.308594 L 128.109375 181.496094 L 124.40625 181.496094 L 124.40625 190.871094 L 121.734375 190.871094 Z M 121.734375 181.496094 " fill-opacity="1" fill-rule="nonzero"/><path fill="#ffffff" d="M 134.820312 179.308594 L 137.492188 179.308594 L 137.492188 190.871094 L 134.820312 190.871094 Z M 134.820312 179.308594 " fill-opacity="1" fill-rule="nonzero"/><path fill="#ffffff" d="M 151.105469 191.074219 C 149.90625 191.074219 148.824219 190.816406 147.855469 190.292969 C 146.894531 189.773438 146.140625 189.058594 145.589844 188.152344 C 145.046875 187.246094 144.777344 186.226562 144.777344 185.089844 C 144.777344 183.957031 145.046875 182.933594 145.589844 182.027344 C 146.140625 181.121094 146.894531 180.410156 147.855469 179.886719 C 148.824219 179.367188 149.90625 179.105469 151.105469 179.105469 C 152.300781 179.105469 153.378906 179.367188 154.339844 179.886719 C 155.296875 180.410156 156.050781 181.121094 156.605469 182.027344 C 157.15625 182.933594 157.433594 183.957031 157.433594 185.089844 C 157.433594 186.226562 157.15625 187.246094 156.605469 188.152344 C 156.050781 189.058594 155.296875 189.773438 154.339844 190.292969 C 153.378906 190.816406 152.300781 191.074219 151.105469 191.074219 Z M 151.105469 188.792969 C 151.792969 188.792969 152.40625 188.636719 152.949219 188.324219 C 153.5 188.011719 153.933594 187.574219 154.246094 187.011719 C 154.566406 186.449219 154.730469 185.808594 154.730469 185.089844 C 154.730469 184.371094 154.566406 183.738281 154.246094 183.183594 C 153.933594 182.621094 153.5 182.183594 152.949219 181.871094 C 152.40625 181.550781 151.792969 181.386719 151.105469 181.386719 C 150.425781 181.386719 149.8125 181.550781 149.261719 181.871094 C 148.707031 182.183594 148.277344 182.621094 147.964844 183.183594 C 147.652344 183.738281 147.496094 184.371094 147.496094 185.089844 C 147.496094 185.808594 147.652344 186.449219 147.964844 187.011719 C 148.277344 187.574219 148.707031 188.011719 149.261719 188.324219 C 149.8125 188.636719 150.425781 188.792969 151.105469 188.792969 Z M 151.105469 188.792969 " fill-opacity="1" fill-rule="nonzero"/><path fill="#ffffff" d="M 175.3125 179.308594 L 175.3125 190.871094 L 173.125 190.871094 L 167.359375 183.855469 L 167.359375 190.871094 L 164.71875 190.871094 L 164.71875 179.308594 L 166.921875 179.308594 L 172.671875 186.324219 L 172.671875 179.308594 Z M 175.3125 179.308594 " fill-opacity="1" fill-rule="nonzero"/><path fill="#ffffff" d="M 193.847656 190.871094 L 193.832031 183.933594 L 190.425781 189.652344 L 189.222656 189.652344 L 185.832031 184.089844 L 185.832031 190.871094 L 183.332031 190.871094 L 183.332031 179.308594 L 185.535156 179.308594 L 189.863281 186.496094 L 194.128906 179.308594 L 196.332031 179.308594 L 196.363281 190.871094 Z M 193.847656 190.871094 " fill-opacity="1" fill-rule="nonzero"/><path fill="#ffffff" d="M 211.984375 188.386719 L 206.609375 188.386719 L 205.59375 190.871094 L 202.84375 190.871094 L 208 179.308594 L 210.640625 179.308594 L 215.8125 190.871094 L 213.015625 190.871094 Z M 211.140625 186.355469 L 209.3125 181.933594 L 207.46875 186.355469 Z M 211.140625 186.355469 " fill-opacity="1" fill-rule="nonzero"/><path fill="#ffffff" d="M 226.089844 191.074219 C 225.171875 191.074219 224.285156 190.949219 223.433594 190.699219 C 222.578125 190.449219 221.894531 190.128906 221.386719 189.730469 L 222.292969 187.714844 C 222.78125 188.082031 223.363281 188.371094 224.042969 188.589844 C 224.730469 188.808594 225.417969 188.917969 226.105469 188.917969 C 226.863281 188.917969 227.425781 188.808594 227.792969 188.589844 C 228.15625 188.363281 228.339844 188.058594 228.339844 187.683594 C 228.339844 187.414062 228.230469 187.191406 228.011719 187.011719 C 227.792969 186.824219 227.515625 186.679688 227.183594 186.574219 C 226.847656 186.460938 226.394531 186.335938 225.824219 186.199219 C 224.9375 185.992188 224.214844 185.785156 223.652344 185.574219 C 223.097656 185.367188 222.621094 185.035156 222.214844 184.574219 C 221.808594 184.105469 221.605469 183.488281 221.605469 182.714844 C 221.605469 182.039062 221.785156 181.429688 222.152344 180.886719 C 222.515625 180.347656 223.0625 179.914062 223.792969 179.589844 C 224.53125 179.269531 225.425781 179.105469 226.480469 179.105469 C 227.21875 179.105469 227.9375 179.195312 228.636719 179.371094 C 229.34375 179.550781 229.964844 179.804688 230.496094 180.136719 L 229.667969 182.167969 C 228.605469 181.566406 227.535156 181.261719 226.464844 181.261719 C 225.714844 181.261719 225.160156 181.382812 224.808594 181.621094 C 224.453125 181.863281 224.277344 182.179688 224.277344 182.574219 C 224.277344 182.972656 224.480469 183.269531 224.886719 183.464844 C 225.300781 183.652344 225.933594 183.839844 226.777344 184.027344 C 227.660156 184.238281 228.386719 184.449219 228.949219 184.667969 C 229.511719 184.878906 229.988281 185.207031 230.386719 185.652344 C 230.792969 186.101562 230.996094 186.710938 230.996094 187.480469 C 230.996094 188.148438 230.808594 188.753906 230.433594 189.292969 C 230.066406 189.835938 229.515625 190.269531 228.777344 190.589844 C 228.035156 190.910156 227.140625 191.074219 226.089844 191.074219 Z M 226.089844 191.074219 " fill-opacity="1" fill-rule="nonzero"/><path fill="#ffffff" d="M 240.492188 181.496094 L 236.789062 181.496094 L 236.789062 179.308594 L 246.867188 179.308594 L 246.867188 181.496094 L 243.164062 181.496094 L 243.164062 190.871094 L 240.492188 190.871094 Z M 240.492188 181.496094 " fill-opacity="1" fill-rule="nonzero"/><path fill="#ffffff" d="M 262.53125 188.730469 L 262.53125 190.871094 L 253.578125 190.871094 L 253.578125 179.308594 L 262.3125 179.308594 L 262.3125 181.464844 L 256.234375 181.464844 L 256.234375 183.964844 L 261.59375 183.964844 L 261.59375 186.042969 L 256.234375 186.042969 L 256.234375 188.730469 Z M 262.53125 188.730469 " fill-opacity="1" fill-rule="nonzero"/><path fill="#ffffff" d="M 277.289062 190.871094 L 275.054688 187.652344 L 272.601562 187.652344 L 272.601562 190.871094 L 269.929688 190.871094 L 269.929688 179.308594 L 274.929688 179.308594 C 275.949219 179.308594 276.835938 179.480469 277.585938 179.824219 C 278.34375 180.167969 278.929688 180.652344 279.335938 181.277344 C 279.742188 181.902344 279.945312 182.648438 279.945312 183.511719 C 279.945312 184.367188 279.734375 185.105469 279.320312 185.730469 C 278.914062 186.347656 278.328125 186.820312 277.570312 187.152344 L 280.164062 190.871094 Z M 277.242188 183.511719 C 277.242188 182.855469 277.03125 182.355469 276.617188 182.011719 C 276.199219 181.667969 275.585938 181.496094 274.773438 181.496094 L 272.601562 181.496094 L 272.601562 185.527344 L 274.773438 185.527344 C 275.585938 185.527344 276.199219 185.351562 276.617188 184.996094 C 277.03125 184.644531 277.242188 184.148438 277.242188 183.511719 Z M 277.242188 183.511719 " fill-opacity="1" fill-rule="nonzero"/><path fill="#ffffff" d="M 291.136719 191.074219 C 290.21875 191.074219 289.332031 190.949219 288.480469 190.699219 C 287.625 190.449219 286.941406 190.128906 286.433594 189.730469 L 287.339844 187.714844 C 287.828125 188.082031 288.410156 188.371094 289.089844 188.589844 C 289.777344 188.808594 290.464844 188.917969 291.152344 188.917969 C 291.910156 188.917969 292.472656 188.808594 292.839844 188.589844 C 293.203125 188.363281 293.386719 188.058594 293.386719 187.683594 C 293.386719 187.414062 293.277344 187.191406 293.058594 187.011719 C 292.839844 186.824219 292.5625 186.679688 292.230469 186.574219 C 291.894531 186.460938 291.441406 186.335938 290.871094 186.199219 C 289.984375 185.992188 289.261719 185.785156 288.699219 185.574219 C 288.144531 185.367188 287.667969 185.035156 287.261719 184.574219 C 286.855469 184.105469 286.652344 183.488281 286.652344 182.714844 C 286.652344 182.039062 286.832031 181.429688 287.199219 180.886719 C 287.5625 180.347656 288.109375 179.914062 288.839844 179.589844 C 289.578125 179.269531 290.472656 179.105469 291.527344 179.105469 C 292.265625 179.105469 292.984375 179.195312 293.683594 179.371094 C 294.390625 179.550781 295.011719 179.804688 295.542969 180.136719 L 294.714844 182.167969 C 293.652344 181.566406 292.582031 181.261719 291.511719 181.261719 C 290.761719 181.261719 290.207031 181.382812 289.855469 181.621094 C 289.5 181.863281 289.324219 182.179688 289.324219 182.574219 C 289.324219 182.972656 289.527344 183.269531 289.933594 183.464844 C 290.347656 183.652344 290.980469 183.839844 291.824219 184.027344 C 292.707031 184.238281 293.433594 184.449219 293.996094 184.667969 C 294.558594 184.878906 295.035156 185.207031 295.433594 185.652344 C 295.839844 186.101562 296.042969 186.710938 296.042969 187.480469 C 296.042969 188.148438 295.855469 188.753906 295.480469 189.292969 C 295.113281 189.835938 294.5625 190.269531 293.824219 190.589844 C 293.082031 190.910156 292.1875 191.074219 291.136719 191.074219 Z M 291.136719 191.074219 " fill-opacity="1" fill-rule="nonzero"/></svg>