<svg xmlns="http://www.w3.org/2000/svg" xmlns:xlink="http://www.w3.org/1999/xlink" width="500" zoomAndPan="magnify" viewBox="0 0 375 374.999991" height="500" preserveAspectRatio="xMidYMid meet" version="1.0"><defs><clipPath id="ba2ede7eb8"><path d="M 78.277344 172.078125 L 298.222656 172.078125 L 298.222656 197.695312 L 78.277344 197.695312 Z M 78.277344 172.078125 " clip-rule="nonzero"/></clipPath></defs><rect x="-37.5" width="450" fill="#ffffff" y="-37.499999" height="449.999989" fill-opacity="1"/><rect x="-37.5" width="450" fill="#000000" y="-37.499999" height="449.999989" fill-opacity="1"/><path stroke-linecap="butt" transform="matrix(0.00181951, -0.749998, 0.749998, 0.00181951, 185.99866, 259.031263)" fill="none" stroke-linejoin="miter" d="M -0.000334639 2.001793 L 206.099185 2.001792 " stroke="#ffffff" stroke-width="4" stroke-opacity="1" stroke-miterlimit="4"/><path fill="#ffffff" d="M 74.433594 134.886719 L 89.574219 134.886719 L 125.714844 210.746094 L 153.949219 134.886719 L 170.511719 134.886719 L 170.511719 135.824219 C 167.8125 135.824219 165.847656 136.644531 164.621094 138.277344 C 163.402344 139.902344 162.636719 142.554688 162.324219 146.230469 C 162.011719 149.898438 161.855469 154.835938 161.855469 161.042969 L 161.855469 202.839844 C 161.855469 208.988281 162.011719 213.914062 162.324219 217.621094 C 162.636719 221.320312 163.402344 223.988281 164.621094 225.621094 C 165.847656 227.246094 167.8125 228.058594 170.511719 228.058594 L 170.511719 228.996094 L 145.105469 228.996094 L 145.105469 228.058594 C 147.800781 228.058594 149.761719 227.246094 150.980469 225.621094 C 152.207031 223.988281 152.980469 221.320312 153.292969 217.621094 C 153.605469 213.914062 153.761719 208.988281 153.761719 202.839844 L 153.761719 137.996094 C 150.375 147.027344 147.015625 156.035156 143.683594 165.011719 C 140.359375 173.980469 136.972656 183.160156 133.527344 192.542969 C 130.078125 201.917969 126.40625 211.777344 122.511719 222.121094 L 121.667969 222.121094 C 118.71875 215.789062 115.972656 209.910156 113.433594 204.480469 C 110.890625 199.054688 108.472656 193.863281 106.183594 188.902344 C 103.902344 183.945312 101.597656 179.007812 99.277344 174.089844 C 96.953125 169.164062 94.566406 164.050781 92.121094 158.746094 C 89.671875 153.445312 87.003906 147.722656 84.121094 141.574219 L 84.027344 181.949219 L 84.027344 193.886719 C 84.027344 200.730469 84.464844 206.382812 85.339844 210.839844 C 86.222656 215.289062 87.417969 218.769531 88.917969 221.277344 C 90.425781 223.789062 92.121094 225.550781 93.996094 226.558594 C 95.878906 227.558594 97.828125 228.058594 99.839844 228.058594 L 99.839844 228.996094 L 74.433594 228.996094 L 74.433594 228.058594 C 77.128906 228.058594 79.089844 227.246094 80.308594 225.621094 C 81.535156 223.988281 82.308594 221.320312 82.621094 217.621094 C 82.933594 213.914062 83.089844 208.988281 83.089844 202.839844 L 83.089844 161.042969 C 83.089844 154.835938 82.933594 149.898438 82.621094 146.230469 C 82.308594 142.554688 81.535156 139.902344 80.308594 138.277344 C 79.089844 136.644531 77.128906 135.824219 74.433594 135.824219 Z M 74.433594 134.886719 " fill-opacity="1" fill-rule="nonzero"/><path fill="#ffffff" d="M 203.734375 134.886719 L 218.875 134.886719 L 255.015625 210.746094 L 283.25 134.886719 L 299.8125 134.886719 L 299.8125 135.824219 C 297.113281 135.824219 295.148438 136.644531 293.921875 138.277344 C 292.703125 139.902344 291.9375 142.554688 291.625 146.230469 C 291.3125 149.898438 291.15625 154.835938 291.15625 161.042969 L 291.15625 202.839844 C 291.15625 208.988281 291.3125 213.914062 291.625 217.621094 C 291.9375 221.320312 292.703125 223.988281 293.921875 225.621094 C 295.148438 227.246094 297.113281 228.058594 299.8125 228.058594 L 299.8125 228.996094 L 274.40625 228.996094 L 274.40625 228.058594 C 277.101562 228.058594 279.0625 227.246094 280.28125 225.621094 C 281.507812 223.988281 282.28125 221.320312 282.59375 217.621094 C 282.90625 213.914062 283.0625 208.988281 283.0625 202.839844 L 283.0625 137.996094 C 279.675781 147.027344 276.316406 156.035156 272.984375 165.011719 C 269.660156 173.980469 266.273438 183.160156 262.828125 192.542969 C 259.378906 201.917969 255.707031 211.777344 251.8125 222.121094 L 250.96875 222.121094 C 248.019531 215.789062 245.273438 209.910156 242.734375 204.480469 C 240.191406 199.054688 237.773438 193.863281 235.484375 188.902344 C 233.203125 183.945312 230.898438 179.007812 228.578125 174.089844 C 226.253906 169.164062 223.867188 164.050781 221.421875 158.746094 C 218.972656 153.445312 216.304688 147.722656 213.421875 141.574219 L 213.328125 181.949219 L 213.328125 193.886719 C 213.328125 200.730469 213.765625 206.382812 214.640625 210.839844 C 215.523438 215.289062 216.71875 218.769531 218.21875 221.277344 C 219.726562 223.789062 221.421875 225.550781 223.296875 226.558594 C 225.179688 227.558594 227.128906 228.058594 229.140625 228.058594 L 229.140625 228.996094 L 203.734375 228.996094 L 203.734375 228.058594 C 206.429688 228.058594 208.390625 227.246094 209.609375 225.621094 C 210.835938 223.988281 211.609375 221.320312 211.921875 217.621094 C 212.234375 213.914062 212.390625 208.988281 212.390625 202.839844 L 212.390625 161.042969 C 212.390625 154.835938 212.234375 149.898438 211.921875 146.230469 C 211.609375 142.554688 210.835938 139.902344 209.609375 138.277344 C 208.390625 136.644531 206.429688 135.824219 203.734375 135.824219 Z M 203.734375 134.886719 " fill-opacity="1" fill-rule="nonzero"/><g clip-path="url(#ba2ede7eb8)"><path fill="#000000" d="M 78.277344 172.078125 L 298.21875 172.078125 L 298.21875 197.695312 L 78.277344 197.695312 Z M 78.277344 172.078125 " fill-opacity="1" fill-rule="nonzero"/></g><path fill="#ffffff" d="M 93.699219 190.871094 L 93.683594 183.933594 L 90.277344 189.652344 L 89.074219 189.652344 L 85.683594 184.089844 L 85.683594 190.871094 L 83.183594 190.871094 L 83.183594 179.308594 L 85.386719 179.308594 L 89.714844 186.496094 L 93.980469 179.308594 L 96.183594 179.308594 L 96.214844 190.871094 Z M 93.699219 190.871094 " fill-opacity="1" fill-rule="nonzero"/><path fill="#ffffff" d="M 109.816406 191.074219 C 108.617188 191.074219 107.535156 190.816406 106.566406 190.292969 C 105.605469 189.773438 104.851562 189.058594 104.300781 188.152344 C 103.757812 187.246094 103.488281 186.226562 103.488281 185.089844 C 103.488281 183.957031 103.757812 182.933594 104.300781 182.027344 C 104.851562 181.121094 105.605469 180.410156 106.566406 179.886719 C 107.535156 179.367188 108.617188 179.105469 109.816406 179.105469 C 111.011719 179.105469 112.089844 179.367188 113.050781 179.886719 C 114.007812 180.410156 114.761719 181.121094 115.316406 182.027344 C 115.867188 182.933594 116.144531 183.957031 116.144531 185.089844 C 116.144531 186.226562 115.867188 187.246094 115.316406 188.152344 C 114.761719 189.058594 114.007812 189.773438 113.050781 190.292969 C 112.089844 190.816406 111.011719 191.074219 109.816406 191.074219 Z M 109.816406 188.792969 C 110.503906 188.792969 111.117188 188.636719 111.660156 188.324219 C 112.210938 188.011719 112.644531 187.574219 112.957031 187.011719 C 113.277344 186.449219 113.441406 185.808594 113.441406 185.089844 C 113.441406 184.371094 113.277344 183.738281 112.957031 183.183594 C 112.644531 182.621094 112.210938 182.183594 111.660156 181.871094 C 111.117188 181.550781 110.503906 181.386719 109.816406 181.386719 C 109.136719 181.386719 108.523438 181.550781 107.972656 181.871094 C 107.417969 182.183594 106.988281 182.621094 106.675781 183.183594 C 106.363281 183.738281 106.207031 184.371094 106.207031 185.089844 C 106.207031 185.808594 106.363281 186.449219 106.675781 187.011719 C 106.988281 187.574219 107.417969 188.011719 107.972656 188.324219 C 108.523438 188.636719 109.136719 188.792969 109.816406 188.792969 Z M 109.816406 188.792969 " fill-opacity="1" fill-rule="nonzero"/><path fill="#ffffff" d="M 125.824219 181.496094 L 122.121094 181.496094 L 122.121094 179.308594 L 132.199219 179.308594 L 132.199219 181.496094 L 128.496094 181.496094 L 128.496094 190.871094 L 125.824219 190.871094 Z M 125.824219 181.496094 " fill-opacity="1" fill-rule="nonzero"/><path fill="#ffffff" d="M 138.910156 179.308594 L 141.582031 179.308594 L 141.582031 190.871094 L 138.910156 190.871094 Z M 138.910156 179.308594 " fill-opacity="1" fill-rule="nonzero"/><path fill="#ffffff" d="M 155.191406 191.074219 C 153.992188 191.074219 152.910156 190.816406 151.941406 190.292969 C 150.980469 189.773438 150.226562 189.058594 149.675781 188.152344 C 149.132812 187.246094 148.863281 186.226562 148.863281 185.089844 C 148.863281 183.957031 149.132812 182.933594 149.675781 182.027344 C 150.226562 181.121094 150.980469 180.410156 151.941406 179.886719 C 152.910156 179.367188 153.992188 179.105469 155.191406 179.105469 C 156.386719 179.105469 157.464844 179.367188 158.425781 179.886719 C 159.382812 180.410156 160.136719 181.121094 160.691406 182.027344 C 161.242188 182.933594 161.519531 183.957031 161.519531 185.089844 C 161.519531 186.226562 161.242188 187.246094 160.691406 188.152344 C 160.136719 189.058594 159.382812 189.773438 158.425781 190.292969 C 157.464844 190.816406 156.386719 191.074219 155.191406 191.074219 Z M 155.191406 188.792969 C 155.878906 188.792969 156.492188 188.636719 157.035156 188.324219 C 157.585938 188.011719 158.019531 187.574219 158.332031 187.011719 C 158.652344 186.449219 158.816406 185.808594 158.816406 185.089844 C 158.816406 184.371094 158.652344 183.738281 158.332031 183.183594 C 158.019531 182.621094 157.585938 182.183594 157.035156 181.871094 C 156.492188 181.550781 155.878906 181.386719 155.191406 181.386719 C 154.511719 181.386719 153.898438 181.550781 153.347656 181.871094 C 152.792969 182.183594 152.363281 182.621094 152.050781 183.183594 C 151.738281 183.738281 151.582031 184.371094 151.582031 185.089844 C 151.582031 185.808594 151.738281 186.449219 152.050781 187.011719 C 152.363281 187.574219 152.792969 188.011719 153.347656 188.324219 C 153.898438 188.636719 154.511719 188.792969 155.191406 188.792969 Z M 155.191406 188.792969 " fill-opacity="1" fill-rule="nonzero"/><path fill="#ffffff" d="M 179.402344 179.308594 L 179.402344 190.871094 L 177.214844 190.871094 L 171.449219 183.855469 L 171.449219 190.871094 L 168.808594 190.871094 L 168.808594 179.308594 L 171.011719 179.308594 L 176.761719 186.324219 L 176.761719 179.308594 Z M 179.402344 179.308594 " fill-opacity="1" fill-rule="nonzero"/><path fill="#ffffff" d="M 197.9375 190.871094 L 197.921875 183.933594 L 194.515625 189.652344 L 193.3125 189.652344 L 189.921875 184.089844 L 189.921875 190.871094 L 187.421875 190.871094 L 187.421875 179.308594 L 189.625 179.308594 L 193.953125 186.496094 L 198.21875 179.308594 L 200.421875 179.308594 L 200.453125 190.871094 Z M 197.9375 190.871094 " fill-opacity="1" fill-rule="nonzero"/><path fill="#ffffff" d="M 216.070312 188.386719 L 210.695312 188.386719 L 209.679688 190.871094 L 206.929688 190.871094 L 212.085938 179.308594 L 214.726562 179.308594 L 219.898438 190.871094 L 217.101562 190.871094 Z M 215.226562 186.355469 L 213.398438 181.933594 L 211.554688 186.355469 Z M 215.226562 186.355469 " fill-opacity="1" fill-rule="nonzero"/><path fill="#ffffff" d="M 230.179688 191.074219 C 229.261719 191.074219 228.375 190.949219 227.523438 190.699219 C 226.667969 190.449219 225.984375 190.128906 225.476562 189.730469 L 226.382812 187.714844 C 226.871094 188.082031 227.453125 188.371094 228.132812 188.589844 C 228.820312 188.808594 229.507812 188.917969 230.195312 188.917969 C 230.953125 188.917969 231.515625 188.808594 231.882812 188.589844 C 232.246094 188.363281 232.429688 188.058594 232.429688 187.683594 C 232.429688 187.414062 232.320312 187.191406 232.101562 187.011719 C 231.882812 186.824219 231.605469 186.679688 231.273438 186.574219 C 230.9375 186.460938 230.484375 186.335938 229.914062 186.199219 C 229.027344 185.992188 228.304688 185.785156 227.742188 185.574219 C 227.1875 185.367188 226.710938 185.035156 226.304688 184.574219 C 225.898438 184.105469 225.695312 183.488281 225.695312 182.714844 C 225.695312 182.039062 225.875 181.429688 226.242188 180.886719 C 226.605469 180.347656 227.152344 179.914062 227.882812 179.589844 C 228.621094 179.269531 229.515625 179.105469 230.570312 179.105469 C 231.308594 179.105469 232.027344 179.195312 232.726562 179.371094 C 233.433594 179.550781 234.054688 179.804688 234.585938 180.136719 L 233.757812 182.167969 C 232.695312 181.566406 231.625 181.261719 230.554688 181.261719 C 229.804688 181.261719 229.25 181.382812 228.898438 181.621094 C 228.542969 181.863281 228.367188 182.179688 228.367188 182.574219 C 228.367188 182.972656 228.570312 183.269531 228.976562 183.464844 C 229.390625 183.652344 230.023438 183.839844 230.867188 184.027344 C 231.75 184.238281 232.476562 184.449219 233.039062 184.667969 C 233.601562 184.878906 234.078125 185.207031 234.476562 185.652344 C 234.882812 186.101562 235.085938 186.710938 235.085938 187.480469 C 235.085938 188.148438 234.898438 188.753906 234.523438 189.292969 C 234.15625 189.835938 233.605469 190.269531 232.867188 190.589844 C 232.125 190.910156 231.230469 191.074219 230.179688 191.074219 Z M 230.179688 191.074219 " fill-opacity="1" fill-rule="nonzero"/><path fill="#ffffff" d="M 244.582031 181.496094 L 240.878906 181.496094 L 240.878906 179.308594 L 250.957031 179.308594 L 250.957031 181.496094 L 247.253906 181.496094 L 247.253906 190.871094 L 244.582031 190.871094 Z M 244.582031 181.496094 " fill-opacity="1" fill-rule="nonzero"/><path fill="#ffffff" d="M 266.621094 188.730469 L 266.621094 190.871094 L 257.667969 190.871094 L 257.667969 179.308594 L 266.402344 179.308594 L 266.402344 181.464844 L 260.324219 181.464844 L 260.324219 183.964844 L 265.683594 183.964844 L 265.683594 186.042969 L 260.324219 186.042969 L 260.324219 188.730469 Z M 266.621094 188.730469 " fill-opacity="1" fill-rule="nonzero"/><path fill="#ffffff" d="M 281.378906 190.871094 L 279.144531 187.652344 L 276.691406 187.652344 L 276.691406 190.871094 L 274.019531 190.871094 L 274.019531 179.308594 L 279.019531 179.308594 C 280.039062 179.308594 280.925781 179.480469 281.675781 179.824219 C 282.433594 180.167969 283.019531 180.652344 283.425781 181.277344 C 283.832031 181.902344 284.035156 182.648438 284.035156 183.511719 C 284.035156 184.367188 283.824219 185.105469 283.410156 185.730469 C 283.003906 186.347656 282.417969 186.820312 281.660156 187.152344 L 284.253906 190.871094 Z M 281.332031 183.511719 C 281.332031 182.855469 281.121094 182.355469 280.707031 182.011719 C 280.289062 181.667969 279.675781 181.496094 278.863281 181.496094 L 276.691406 181.496094 L 276.691406 185.527344 L 278.863281 185.527344 C 279.675781 185.527344 280.289062 185.351562 280.707031 184.996094 C 281.121094 184.644531 281.332031 184.148438 281.332031 183.511719 Z M 281.332031 183.511719 " fill-opacity="1" fill-rule="nonzero"/><path fill="#ffffff" d="M 295.222656 191.074219 C 294.304688 191.074219 293.417969 190.949219 292.566406 190.699219 C 291.710938 190.449219 291.027344 190.128906 290.519531 189.730469 L 291.425781 187.714844 C 291.914062 188.082031 292.496094 188.371094 293.175781 188.589844 C 293.863281 188.808594 294.550781 188.917969 295.238281 188.917969 C 295.996094 188.917969 296.558594 188.808594 296.925781 188.589844 C 297.289062 188.363281 297.472656 188.058594 297.472656 187.683594 C 297.472656 187.414062 297.363281 187.191406 297.144531 187.011719 C 296.925781 186.824219 296.648438 186.679688 296.316406 186.574219 C 295.980469 186.460938 295.527344 186.335938 294.957031 186.199219 C 294.070312 185.992188 293.347656 185.785156 292.785156 185.574219 C 292.230469 185.367188 291.753906 185.035156 291.347656 184.574219 C 290.941406 184.105469 290.738281 183.488281 290.738281 182.714844 C 290.738281 182.039062 290.917969 181.429688 291.285156 180.886719 C 291.648438 180.347656 292.195312 179.914062 292.925781 179.589844 C 293.664062 179.269531 294.558594 179.105469 295.613281 179.105469 C 296.351562 179.105469 297.070312 179.195312 297.769531 179.371094 C 298.476562 179.550781 299.097656 179.804688 299.628906 180.136719 L 298.800781 182.167969 C 297.738281 181.566406 296.667969 181.261719 295.597656 181.261719 C 294.847656 181.261719 294.292969 181.382812 293.941406 181.621094 C 293.585938 181.863281 293.410156 182.179688 293.410156 182.574219 C 293.410156 182.972656 293.613281 183.269531 294.019531 183.464844 C 294.433594 183.652344 295.066406 183.839844 295.910156 184.027344 C 296.792969 184.238281 297.519531 184.449219 298.082031 184.667969 C 298.644531 184.878906 299.121094 185.207031 299.519531 185.652344 C 299.925781 186.101562 300.128906 186.710938 300.128906 187.480469 C 300.128906 188.148438 299.941406 188.753906 299.566406 189.292969 C 299.199219 189.835938 298.648438 190.269531 297.910156 190.589844 C 297.167969 190.910156 296.273438 191.074219 295.222656 191.074219 Z M 295.222656 191.074219 " fill-opacity="1" fill-rule="nonzero"/><path fill="#ffffff" d="M 61.480469 272.582031 L 61.464844 266.472656 L 58.464844 271.503906 L 57.402344 271.503906 L 54.433594 266.613281 L 54.433594 272.582031 L 52.214844 272.582031 L 52.214844 262.410156 L 54.167969 262.410156 L 57.964844 268.738281 L 61.714844 262.410156 L 63.652344 262.410156 L 63.683594 272.582031 Z M 61.480469 272.582031 " fill-opacity="1" fill-rule="nonzero"/><path fill="#ffffff" d="M 77.417969 270.410156 L 72.699219 270.410156 L 71.792969 272.582031 L 69.386719 272.582031 L 73.917969 262.410156 L 76.246094 262.410156 L 80.792969 272.582031 L 78.324219 272.582031 Z M 76.667969 268.613281 L 75.058594 264.722656 L 73.449219 268.613281 Z M 76.667969 268.613281 " fill-opacity="1" fill-rule="nonzero"/><path fill="#ffffff" d="M 89.816406 272.753906 C 89.011719 272.753906 88.238281 272.644531 87.488281 272.425781 C 86.738281 272.207031 86.132812 271.925781 85.675781 271.582031 L 86.472656 269.800781 C 86.910156 270.125 87.425781 270.386719 88.019531 270.582031 C 88.621094 270.769531 89.226562 270.863281 89.832031 270.863281 C 90.496094 270.863281 90.992188 270.765625 91.316406 270.566406 C 91.636719 270.371094 91.800781 270.109375 91.800781 269.785156 C 91.800781 269.535156 91.699219 269.332031 91.503906 269.175781 C 91.316406 269.019531 91.074219 268.894531 90.785156 268.800781 C 90.492188 268.699219 90.089844 268.589844 89.582031 268.472656 C 88.808594 268.285156 88.175781 268.105469 87.675781 267.925781 C 87.183594 267.738281 86.761719 267.441406 86.410156 267.035156 C 86.054688 266.628906 85.878906 266.089844 85.878906 265.410156 C 85.878906 264.816406 86.035156 264.28125 86.347656 263.800781 C 86.667969 263.324219 87.152344 262.941406 87.800781 262.660156 C 88.445312 262.378906 89.230469 262.238281 90.160156 262.238281 C 90.816406 262.238281 91.449219 262.316406 92.066406 262.472656 C 92.691406 262.628906 93.230469 262.855469 93.691406 263.144531 L 92.972656 264.925781 C 92.035156 264.394531 91.089844 264.128906 90.144531 264.128906 C 89.488281 264.128906 89.003906 264.238281 88.691406 264.457031 C 88.378906 264.667969 88.222656 264.941406 88.222656 265.285156 C 88.222656 265.640625 88.402344 265.902344 88.769531 266.066406 C 89.132812 266.234375 89.683594 266.402344 90.425781 266.566406 C 91.207031 266.753906 91.839844 266.941406 92.332031 267.128906 C 92.820312 267.308594 93.242188 267.59375 93.597656 267.988281 C 93.949219 268.386719 94.128906 268.921875 94.128906 269.597656 C 94.128906 270.183594 93.964844 270.714844 93.644531 271.191406 C 93.320312 271.671875 92.832031 272.050781 92.175781 272.332031 C 91.527344 272.613281 90.742188 272.753906 89.816406 272.753906 Z M 89.816406 272.753906 " fill-opacity="1" fill-rule="nonzero"/><path fill="#ffffff" d="M 102.476562 264.332031 L 99.226562 264.332031 L 99.226562 262.410156 L 108.085938 262.410156 L 108.085938 264.332031 L 104.835938 264.332031 L 104.835938 272.582031 L 102.476562 272.582031 Z M 102.476562 264.332031 " fill-opacity="1" fill-rule="nonzero"/><path fill="#ffffff" d="M 121.851562 270.691406 L 121.851562 272.582031 L 113.976562 272.582031 L 113.976562 262.410156 L 121.664062 262.410156 L 121.664062 264.300781 L 116.320312 264.300781 L 116.320312 266.503906 L 121.039062 266.503906 L 121.039062 268.332031 L 116.320312 268.332031 L 116.320312 270.691406 Z M 121.851562 270.691406 " fill-opacity="1" fill-rule="nonzero"/><path fill="#ffffff" d="M 134.839844 272.582031 L 132.871094 269.753906 L 130.714844 269.753906 L 130.714844 272.582031 L 128.355469 272.582031 L 128.355469 262.410156 L 132.761719 262.410156 C 133.65625 262.410156 134.4375 262.5625 135.105469 262.863281 C 135.769531 263.167969 136.28125 263.59375 136.636719 264.144531 C 137 264.699219 137.183594 265.347656 137.183594 266.097656 C 137.183594 266.859375 137 267.515625 136.636719 268.066406 C 136.269531 268.609375 135.753906 269.027344 135.089844 269.316406 L 137.371094 272.582031 Z M 134.792969 266.097656 C 134.792969 265.527344 134.605469 265.089844 134.230469 264.785156 C 133.863281 264.484375 133.332031 264.332031 132.636719 264.332031 L 130.714844 264.332031 L 130.714844 267.878906 L 132.636719 267.878906 C 133.332031 267.878906 133.863281 267.722656 134.230469 267.410156 C 134.605469 267.097656 134.792969 266.660156 134.792969 266.097656 Z M 134.792969 266.097656 " fill-opacity="1" fill-rule="nonzero"/><path fill="#ffffff" d="M 143.660156 262.410156 L 146.019531 262.410156 L 146.019531 272.582031 L 143.660156 272.582031 Z M 143.660156 262.410156 " fill-opacity="1" fill-rule="nonzero"/><path fill="#ffffff" d="M 162.386719 262.410156 L 162.386719 272.582031 L 160.464844 272.582031 L 155.386719 266.410156 L 155.386719 272.582031 L 153.058594 272.582031 L 153.058594 262.410156 L 155.011719 262.410156 L 160.058594 268.582031 L 160.058594 262.410156 Z M 162.386719 262.410156 " fill-opacity="1" fill-rule="nonzero"/><path fill="#ffffff" d="M 176.300781 267.332031 L 178.457031 267.332031 L 178.457031 271.457031 C 177.902344 271.875 177.261719 272.199219 176.535156 272.425781 C 175.804688 272.644531 175.074219 272.753906 174.347656 272.753906 C 173.285156 272.753906 172.332031 272.53125 171.488281 272.082031 C 170.644531 271.636719 169.980469 271.011719 169.503906 270.207031 C 169.023438 269.40625 168.785156 268.503906 168.785156 267.503906 C 168.785156 266.496094 169.023438 265.589844 169.503906 264.785156 C 169.980469 263.984375 170.648438 263.359375 171.503906 262.910156 C 172.355469 262.464844 173.316406 262.238281 174.378906 262.238281 C 175.273438 262.238281 176.082031 262.390625 176.800781 262.691406 C 177.527344 262.996094 178.144531 263.425781 178.644531 263.988281 L 177.128906 265.394531 C 176.398438 264.625 175.523438 264.238281 174.503906 264.238281 C 173.847656 264.238281 173.269531 264.375 172.769531 264.644531 C 172.269531 264.917969 171.878906 265.300781 171.597656 265.800781 C 171.316406 266.292969 171.175781 266.859375 171.175781 267.503906 C 171.175781 268.128906 171.316406 268.691406 171.597656 269.191406 C 171.878906 269.683594 172.269531 270.066406 172.769531 270.347656 C 173.269531 270.621094 173.835938 270.753906 174.472656 270.753906 C 175.148438 270.753906 175.757812 270.609375 176.300781 270.316406 Z M 176.300781 267.332031 " fill-opacity="1" fill-rule="nonzero"/><path fill="#ffffff" d="M 196.105469 264.332031 L 192.855469 264.332031 L 192.855469 262.410156 L 201.714844 262.410156 L 201.714844 264.332031 L 198.464844 264.332031 L 198.464844 272.582031 L 196.105469 272.582031 Z M 196.105469 264.332031 " fill-opacity="1" fill-rule="nonzero"/><path fill="#ffffff" d="M 216.933594 262.410156 L 216.933594 272.582031 L 214.589844 272.582031 L 214.589844 268.410156 L 209.964844 268.410156 L 209.964844 272.582031 L 207.605469 272.582031 L 207.605469 262.410156 L 209.964844 262.410156 L 209.964844 266.425781 L 214.589844 266.425781 L 214.589844 262.410156 Z M 216.933594 262.410156 " fill-opacity="1" fill-rule="nonzero"/><path fill="#ffffff" d="M 231.847656 270.691406 L 231.847656 272.582031 L 223.972656 272.582031 L 223.972656 262.410156 L 231.660156 262.410156 L 231.660156 264.300781 L 226.316406 264.300781 L 226.316406 266.503906 L 231.035156 266.503906 L 231.035156 268.332031 L 226.316406 268.332031 L 226.316406 270.691406 Z M 231.847656 270.691406 " fill-opacity="1" fill-rule="nonzero"/><path fill="#ffffff" d="M 253.796875 270.410156 L 249.078125 270.410156 L 248.171875 272.582031 L 245.765625 272.582031 L 250.296875 262.410156 L 252.625 262.410156 L 257.171875 272.582031 L 254.703125 272.582031 Z M 253.046875 268.613281 L 251.4375 264.722656 L 249.828125 268.613281 Z M 253.046875 268.613281 " fill-opacity="1" fill-rule="nonzero"/><path fill="#ffffff" d="M 269.332031 272.582031 L 267.363281 269.753906 L 265.207031 269.753906 L 265.207031 272.582031 L 262.847656 272.582031 L 262.847656 262.410156 L 267.253906 262.410156 C 268.148438 262.410156 268.929688 262.5625 269.597656 262.863281 C 270.261719 263.167969 270.773438 263.59375 271.128906 264.144531 C 271.492188 264.699219 271.675781 265.347656 271.675781 266.097656 C 271.675781 266.859375 271.492188 267.515625 271.128906 268.066406 C 270.761719 268.609375 270.246094 269.027344 269.582031 269.316406 L 271.863281 272.582031 Z M 269.285156 266.097656 C 269.285156 265.527344 269.097656 265.089844 268.722656 264.785156 C 268.355469 264.484375 267.824219 264.332031 267.128906 264.332031 L 265.207031 264.332031 L 265.207031 267.878906 L 267.128906 267.878906 C 267.824219 267.878906 268.355469 267.722656 268.722656 267.410156 C 269.097656 267.097656 269.285156 266.660156 269.285156 266.097656 Z M 269.285156 266.097656 " fill-opacity="1" fill-rule="nonzero"/><path fill="#ffffff" d="M 280.265625 264.332031 L 277.015625 264.332031 L 277.015625 262.410156 L 285.875 262.410156 L 285.875 264.332031 L 282.625 264.332031 L 282.625 272.582031 L 280.265625 272.582031 Z M 280.265625 264.332031 " fill-opacity="1" fill-rule="nonzero"/><path fill="#ffffff" d="M 305.429688 272.753906 C 304.375 272.753906 303.421875 272.53125 302.570312 272.082031 C 301.726562 271.625 301.0625 270.996094 300.585938 270.191406 C 300.105469 269.390625 299.867188 268.496094 299.867188 267.503906 C 299.867188 266.503906 300.105469 265.605469 300.585938 264.800781 C 301.0625 264 301.726562 263.375 302.570312 262.925781 C 303.421875 262.46875 304.375 262.238281 305.429688 262.238281 C 306.492188 262.238281 307.445312 262.46875 308.289062 262.925781 C 309.132812 263.375 309.792969 264 310.273438 264.800781 C 310.761719 265.605469 311.007812 266.503906 311.007812 267.503906 C 311.007812 268.496094 310.761719 269.390625 310.273438 270.191406 C 309.792969 270.996094 309.132812 271.625 308.289062 272.082031 C 307.445312 272.53125 306.492188 272.753906 305.429688 272.753906 Z M 305.429688 270.753906 C 306.03125 270.753906 306.574219 270.621094 307.054688 270.347656 C 307.542969 270.066406 307.921875 269.683594 308.195312 269.191406 C 308.476562 268.691406 308.617188 268.128906 308.617188 267.503906 C 308.617188 266.871094 308.476562 266.308594 308.195312 265.816406 C 307.921875 265.316406 307.542969 264.933594 307.054688 264.660156 C 306.574219 264.378906 306.03125 264.238281 305.429688 264.238281 C 304.835938 264.238281 304.292969 264.378906 303.804688 264.660156 C 303.324219 264.933594 302.945312 265.316406 302.664062 265.816406 C 302.390625 266.308594 302.257812 266.871094 302.257812 267.503906 C 302.257812 268.128906 302.390625 268.691406 302.664062 269.191406 C 302.945312 269.683594 303.324219 270.066406 303.804688 270.347656 C 304.292969 270.621094 304.835938 270.753906 305.429688 270.753906 Z M 305.429688 270.753906 " fill-opacity="1" fill-rule="nonzero"/><path fill="#ffffff" d="M 319.753906 264.300781 L 319.753906 266.988281 L 324.457031 266.988281 L 324.457031 268.878906 L 319.753906 268.878906 L 319.753906 272.582031 L 317.394531 272.582031 L 317.394531 262.410156 L 325.082031 262.410156 L 325.082031 264.300781 Z M 319.753906 264.300781 " fill-opacity="1" fill-rule="nonzero"/><path fill="#ffffff" d="M 78.972656 293.003906 C 78.167969 293.003906 77.394531 292.894531 76.644531 292.675781 C 75.894531 292.457031 75.289062 292.175781 74.832031 291.832031 L 75.628906 290.050781 C 76.066406 290.375 76.582031 290.636719 77.175781 290.832031 C 77.777344 291.019531 78.382812 291.113281 78.988281 291.113281 C 79.652344 291.113281 80.148438 291.015625 80.472656 290.816406 C 80.792969 290.621094 80.957031 290.359375 80.957031 290.035156 C 80.957031 289.785156 80.855469 289.582031 80.660156 289.425781 C 80.472656 289.269531 80.230469 289.144531 79.941406 289.050781 C 79.648438 288.949219 79.246094 288.839844 78.738281 288.722656 C 77.964844 288.535156 77.332031 288.355469 76.832031 288.175781 C 76.339844 287.988281 75.917969 287.691406 75.566406 287.285156 C 75.210938 286.878906 75.035156 286.339844 75.035156 285.660156 C 75.035156 285.066406 75.191406 284.53125 75.503906 284.050781 C 75.824219 283.574219 76.308594 283.191406 76.957031 282.910156 C 77.601562 282.628906 78.386719 282.488281 79.316406 282.488281 C 79.972656 282.488281 80.605469 282.566406 81.222656 282.722656 C 81.847656 282.878906 82.386719 283.105469 82.847656 283.394531 L 82.128906 285.175781 C 81.191406 284.644531 80.246094 284.378906 79.300781 284.378906 C 78.644531 284.378906 78.160156 284.488281 77.847656 284.707031 C 77.535156 284.917969 77.378906 285.191406 77.378906 285.535156 C 77.378906 285.890625 77.558594 286.152344 77.925781 286.316406 C 78.289062 286.484375 78.839844 286.652344 79.582031 286.816406 C 80.363281 287.003906 80.996094 287.191406 81.488281 287.378906 C 81.976562 287.558594 82.398438 287.84375 82.753906 288.238281 C 83.105469 288.636719 83.285156 289.171875 83.285156 289.847656 C 83.285156 290.433594 83.121094 290.964844 82.800781 291.441406 C 82.476562 291.921875 81.988281 292.300781 81.332031 292.582031 C 80.683594 292.863281 79.898438 293.003906 78.972656 293.003906 Z M 78.972656 293.003906 " fill-opacity="1" fill-rule="nonzero"/><path fill="#ffffff" d="M 91.636719 284.582031 L 88.386719 284.582031 L 88.386719 282.660156 L 97.246094 282.660156 L 97.246094 284.582031 L 93.996094 284.582031 L 93.996094 292.832031 L 91.636719 292.832031 Z M 91.636719 284.582031 " fill-opacity="1" fill-rule="nonzero"/><path fill="#ffffff" d="M 108.054688 293.003906 C 107 293.003906 106.046875 292.78125 105.195312 292.332031 C 104.351562 291.875 103.6875 291.246094 103.210938 290.441406 C 102.730469 289.640625 102.492188 288.746094 102.492188 287.753906 C 102.492188 286.753906 102.730469 285.855469 103.210938 285.050781 C 103.6875 284.25 104.351562 283.625 105.195312 283.175781 C 106.046875 282.71875 107 282.488281 108.054688 282.488281 C 109.117188 282.488281 110.070312 282.71875 110.914062 283.175781 C 111.757812 283.625 112.417969 284.25 112.898438 285.050781 C 113.386719 285.855469 113.632812 286.753906 113.632812 287.753906 C 113.632812 288.746094 113.386719 289.640625 112.898438 290.441406 C 112.417969 291.246094 111.757812 291.875 110.914062 292.332031 C 110.070312 292.78125 109.117188 293.003906 108.054688 293.003906 Z M 108.054688 291.003906 C 108.65625 291.003906 109.199219 290.871094 109.679688 290.597656 C 110.167969 290.316406 110.546875 289.933594 110.820312 289.441406 C 111.101562 288.941406 111.242188 288.378906 111.242188 287.753906 C 111.242188 287.121094 111.101562 286.558594 110.820312 286.066406 C 110.546875 285.566406 110.167969 285.183594 109.679688 284.910156 C 109.199219 284.628906 108.65625 284.488281 108.054688 284.488281 C 107.460938 284.488281 106.917969 284.628906 106.429688 284.910156 C 105.949219 285.183594 105.570312 285.566406 105.289062 286.066406 C 105.015625 286.558594 104.882812 287.121094 104.882812 287.753906 C 104.882812 288.378906 105.015625 288.941406 105.289062 289.441406 C 105.570312 289.933594 105.949219 290.316406 106.429688 290.597656 C 106.917969 290.871094 107.460938 291.003906 108.054688 291.003906 Z M 108.054688 291.003906 " fill-opacity="1" fill-rule="nonzero"/><path fill="#ffffff" d="M 126.507812 292.832031 L 124.539062 290.003906 L 122.382812 290.003906 L 122.382812 292.832031 L 120.023438 292.832031 L 120.023438 282.660156 L 124.429688 282.660156 C 125.324219 282.660156 126.105469 282.8125 126.773438 283.113281 C 127.4375 283.417969 127.949219 283.84375 128.304688 284.394531 C 128.667969 284.949219 128.851562 285.597656 128.851562 286.347656 C 128.851562 287.109375 128.667969 287.765625 128.304688 288.316406 C 127.9375 288.859375 127.421875 289.277344 126.757812 289.566406 L 129.039062 292.832031 Z M 126.460938 286.347656 C 126.460938 285.777344 126.273438 285.339844 125.898438 285.035156 C 125.53125 284.734375 125 284.582031 124.304688 284.582031 L 122.382812 284.582031 L 122.382812 288.128906 L 124.304688 288.128906 C 125 288.128906 125.53125 287.972656 125.898438 287.660156 C 126.273438 287.347656 126.460938 286.910156 126.460938 286.347656 Z M 126.460938 286.347656 " fill-opacity="1" fill-rule="nonzero"/><path fill="#ffffff" d="M 135.328125 282.660156 L 137.6875 282.660156 L 137.6875 292.832031 L 135.328125 292.832031 Z M 135.328125 282.660156 " fill-opacity="1" fill-rule="nonzero"/><path fill="#ffffff" d="M 152.601562 290.941406 L 152.601562 292.832031 L 144.726562 292.832031 L 144.726562 282.660156 L 152.414062 282.660156 L 152.414062 284.550781 L 147.070312 284.550781 L 147.070312 286.753906 L 151.789062 286.753906 L 151.789062 288.582031 L 147.070312 288.582031 L 147.070312 290.941406 Z M 152.601562 290.941406 " fill-opacity="1" fill-rule="nonzero"/><path fill="#ffffff" d="M 162.445312 293.003906 C 161.640625 293.003906 160.867188 292.894531 160.117188 292.675781 C 159.367188 292.457031 158.761719 292.175781 158.304688 291.832031 L 159.101562 290.050781 C 159.539062 290.375 160.054688 290.636719 160.648438 290.832031 C 161.25 291.019531 161.855469 291.113281 162.460938 291.113281 C 163.125 291.113281 163.621094 291.015625 163.945312 290.816406 C 164.265625 290.621094 164.429688 290.359375 164.429688 290.035156 C 164.429688 289.785156 164.328125 289.582031 164.132812 289.425781 C 163.945312 289.269531 163.703125 289.144531 163.414062 289.050781 C 163.121094 288.949219 162.71875 288.839844 162.210938 288.722656 C 161.4375 288.535156 160.804688 288.355469 160.304688 288.175781 C 159.8125 287.988281 159.390625 287.691406 159.039062 287.285156 C 158.683594 286.878906 158.507812 286.339844 158.507812 285.660156 C 158.507812 285.066406 158.664062 284.53125 158.976562 284.050781 C 159.296875 283.574219 159.78125 283.191406 160.429688 282.910156 C 161.074219 282.628906 161.859375 282.488281 162.789062 282.488281 C 163.445312 282.488281 164.078125 282.566406 164.695312 282.722656 C 165.320312 282.878906 165.859375 283.105469 166.320312 283.394531 L 165.601562 285.175781 C 164.664062 284.644531 163.71875 284.378906 162.773438 284.378906 C 162.117188 284.378906 161.632812 284.488281 161.320312 284.707031 C 161.007812 284.917969 160.851562 285.191406 160.851562 285.535156 C 160.851562 285.890625 161.03125 286.152344 161.398438 286.316406 C 161.761719 286.484375 162.3125 286.652344 163.054688 286.816406 C 163.835938 287.003906 164.46875 287.191406 164.960938 287.378906 C 165.449219 287.558594 165.871094 287.84375 166.226562 288.238281 C 166.578125 288.636719 166.757812 289.171875 166.757812 289.847656 C 166.757812 290.433594 166.59375 290.964844 166.273438 291.441406 C 165.949219 291.921875 165.460938 292.300781 164.804688 292.582031 C 164.15625 292.863281 163.371094 293.003906 162.445312 293.003906 Z M 162.445312 293.003906 " fill-opacity="1" fill-rule="nonzero"/><path fill="#ffffff" d="M 181.746094 282.660156 L 184.105469 282.660156 L 184.105469 292.832031 L 181.746094 292.832031 Z M 181.746094 282.660156 " fill-opacity="1" fill-rule="nonzero"/><path fill="#ffffff" d="M 200.46875 282.660156 L 200.46875 292.832031 L 198.546875 292.832031 L 193.46875 286.660156 L 193.46875 292.832031 L 191.140625 292.832031 L 191.140625 282.660156 L 193.09375 282.660156 L 198.140625 288.832031 L 198.140625 282.660156 Z M 200.46875 282.660156 " fill-opacity="1" fill-rule="nonzero"/><path fill="#ffffff" d="M 225.519531 292.832031 L 225.503906 286.722656 L 222.503906 291.753906 L 221.441406 291.753906 L 218.472656 286.863281 L 218.472656 292.832031 L 216.253906 292.832031 L 216.253906 282.660156 L 218.207031 282.660156 L 222.003906 288.988281 L 225.753906 282.660156 L 227.691406 282.660156 L 227.722656 292.832031 Z M 225.519531 292.832031 " fill-opacity="1" fill-rule="nonzero"/><path fill="#ffffff" d="M 239.675781 293.003906 C 238.621094 293.003906 237.667969 292.78125 236.816406 292.332031 C 235.972656 291.875 235.308594 291.246094 234.832031 290.441406 C 234.351562 289.640625 234.113281 288.746094 234.113281 287.753906 C 234.113281 286.753906 234.351562 285.855469 234.832031 285.050781 C 235.308594 284.25 235.972656 283.625 236.816406 283.175781 C 237.667969 282.71875 238.621094 282.488281 239.675781 282.488281 C 240.738281 282.488281 241.691406 282.71875 242.535156 283.175781 C 243.378906 283.625 244.039062 284.25 244.519531 285.050781 C 245.007812 285.855469 245.253906 286.753906 245.253906 287.753906 C 245.253906 288.746094 245.007812 289.640625 244.519531 290.441406 C 244.039062 291.246094 243.378906 291.875 242.535156 292.332031 C 241.691406 292.78125 240.738281 293.003906 239.675781 293.003906 Z M 239.675781 291.003906 C 240.277344 291.003906 240.820312 290.871094 241.300781 290.597656 C 241.789062 290.316406 242.167969 289.933594 242.441406 289.441406 C 242.722656 288.941406 242.863281 288.378906 242.863281 287.753906 C 242.863281 287.121094 242.722656 286.558594 242.441406 286.066406 C 242.167969 285.566406 241.789062 285.183594 241.300781 284.910156 C 240.820312 284.628906 240.277344 284.488281 239.675781 284.488281 C 239.082031 284.488281 238.539062 284.628906 238.050781 284.910156 C 237.570312 285.183594 237.191406 285.566406 236.910156 286.066406 C 236.636719 286.558594 236.503906 287.121094 236.503906 287.753906 C 236.503906 288.378906 236.636719 288.941406 236.910156 289.441406 C 237.191406 289.933594 237.570312 290.316406 238.050781 290.597656 C 238.539062 290.871094 239.082031 291.003906 239.675781 291.003906 Z M 239.675781 291.003906 " fill-opacity="1" fill-rule="nonzero"/><path fill="#ffffff" d="M 253.75 284.582031 L 250.5 284.582031 L 250.5 282.660156 L 259.359375 282.660156 L 259.359375 284.582031 L 256.109375 284.582031 L 256.109375 292.832031 L 253.75 292.832031 Z M 253.75 284.582031 " fill-opacity="1" fill-rule="nonzero"/><path fill="#ffffff" d="M 265.25 282.660156 L 267.609375 282.660156 L 267.609375 292.832031 L 265.25 292.832031 Z M 265.25 282.660156 " fill-opacity="1" fill-rule="nonzero"/><path fill="#ffffff" d="M 279.570312 293.003906 C 278.515625 293.003906 277.5625 292.78125 276.710938 292.332031 C 275.867188 291.875 275.203125 291.246094 274.726562 290.441406 C 274.246094 289.640625 274.007812 288.746094 274.007812 287.753906 C 274.007812 286.753906 274.246094 285.855469 274.726562 285.050781 C 275.203125 284.25 275.867188 283.625 276.710938 283.175781 C 277.5625 282.71875 278.515625 282.488281 279.570312 282.488281 C 280.632812 282.488281 281.585938 282.71875 282.429688 283.175781 C 283.273438 283.625 283.933594 284.25 284.414062 285.050781 C 284.902344 285.855469 285.148438 286.753906 285.148438 287.753906 C 285.148438 288.746094 284.902344 289.640625 284.414062 290.441406 C 283.933594 291.246094 283.273438 291.875 282.429688 292.332031 C 281.585938 292.78125 280.632812 293.003906 279.570312 293.003906 Z M 279.570312 291.003906 C 280.171875 291.003906 280.714844 290.871094 281.195312 290.597656 C 281.683594 290.316406 282.0625 289.933594 282.335938 289.441406 C 282.617188 288.941406 282.757812 288.378906 282.757812 287.753906 C 282.757812 287.121094 282.617188 286.558594 282.335938 286.066406 C 282.0625 285.566406 281.683594 285.183594 281.195312 284.910156 C 280.714844 284.628906 280.171875 284.488281 279.570312 284.488281 C 278.976562 284.488281 278.433594 284.628906 277.945312 284.910156 C 277.464844 285.183594 277.085938 285.566406 276.804688 286.066406 C 276.53125 286.558594 276.398438 287.121094 276.398438 287.753906 C 276.398438 288.378906 276.53125 288.941406 276.804688 289.441406 C 277.085938 289.933594 277.464844 290.316406 277.945312 290.597656 C 278.433594 290.871094 278.976562 291.003906 279.570312 291.003906 Z M 279.570312 291.003906 " fill-opacity="1" fill-rule="nonzero"/><path fill="#ffffff" d="M 300.863281 282.660156 L 300.863281 292.832031 L 298.941406 292.832031 L 293.863281 286.660156 L 293.863281 292.832031 L 291.535156 292.832031 L 291.535156 282.660156 L 293.488281 282.660156 L 298.535156 288.832031 L 298.535156 282.660156 Z M 300.863281 282.660156 " fill-opacity="1" fill-rule="nonzero"/></svg>