<svg xmlns="http://www.w3.org/2000/svg" xmlns:xlink="http://www.w3.org/1999/xlink" width="500" zoomAndPan="magnify" viewBox="0 0 375 374.999991" height="500" preserveAspectRatio="xMidYMid meet" version="1.0"><defs><g/><clipPath id="f7c42f0c17"><path d="M 78.277344 172.078125 L 298.222656 172.078125 L 298.222656 197.695312 L 78.277344 197.695312 Z M 78.277344 172.078125 " clip-rule="nonzero"/></clipPath></defs><path stroke-linecap="butt" transform="matrix(0.00181951, -0.749998, 0.749998, 0.00181951, 185.99866, 259.031292)" fill="none" stroke-linejoin="miter" d="M -0.000296236 2.001793 L 206.099276 2.001793 " stroke="#000000" stroke-width="4" stroke-opacity="1" stroke-miterlimit="4"/><g fill="#000000" fill-opacity="1"><g transform="translate(71.607193, 228.99454)"><g><path d="M 2.828125 -94.109375 L 17.96875 -94.109375 L 54.109375 -18.25 L 82.34375 -94.109375 L 98.90625 -94.109375 L 98.90625 -93.171875 C 96.207031 -93.171875 94.242188 -92.351562 93.015625 -90.71875 C 91.796875 -89.09375 91.03125 -86.441406 90.71875 -82.765625 C 90.40625 -79.097656 90.25 -74.160156 90.25 -67.953125 L 90.25 -26.15625 C 90.25 -20.007812 90.40625 -15.082031 90.71875 -11.375 C 91.03125 -7.675781 91.796875 -5.007812 93.015625 -3.375 C 94.242188 -1.75 96.207031 -0.9375 98.90625 -0.9375 L 98.90625 0 L 73.5 0 L 73.5 -0.9375 C 76.195312 -0.9375 78.15625 -1.75 79.375 -3.375 C 80.601562 -5.007812 81.375 -7.675781 81.6875 -11.375 C 82 -15.082031 82.15625 -20.007812 82.15625 -26.15625 L 82.15625 -91 C 78.769531 -81.96875 75.410156 -72.960938 72.078125 -63.984375 C 68.753906 -55.015625 65.367188 -45.835938 61.921875 -36.453125 C 58.472656 -27.078125 54.800781 -17.21875 50.90625 -6.875 L 50.0625 -6.875 C 47.113281 -13.207031 44.367188 -19.085938 41.828125 -24.515625 C 39.285156 -29.941406 36.867188 -35.132812 34.578125 -40.09375 C 32.296875 -45.050781 29.992188 -49.988281 27.671875 -54.90625 C 25.347656 -59.832031 22.960938 -64.945312 20.515625 -70.25 C 18.066406 -75.550781 15.398438 -81.273438 12.515625 -87.421875 L 12.421875 -47.046875 L 12.421875 -35.109375 C 12.421875 -28.265625 12.859375 -22.613281 13.734375 -18.15625 C 14.617188 -13.707031 15.8125 -10.226562 17.3125 -7.71875 C 18.820312 -5.207031 20.515625 -3.445312 22.390625 -2.4375 C 24.273438 -1.4375 26.222656 -0.9375 28.234375 -0.9375 L 28.234375 0 L 2.828125 0 L 2.828125 -0.9375 C 5.523438 -0.9375 7.484375 -1.75 8.703125 -3.375 C 9.929688 -5.007812 10.703125 -7.675781 11.015625 -11.375 C 11.328125 -15.082031 11.484375 -20.007812 11.484375 -26.15625 L 11.484375 -67.953125 C 11.484375 -74.160156 11.328125 -79.097656 11.015625 -82.765625 C 10.703125 -86.441406 9.929688 -89.09375 8.703125 -90.71875 C 7.484375 -92.351562 5.523438 -93.171875 2.828125 -93.171875 Z M 2.828125 -94.109375 "/></g></g></g><g fill="#000000" fill-opacity="1"><g transform="translate(200.904972, 228.99454)"><g><path d="M 2.828125 -94.109375 L 17.96875 -94.109375 L 54.109375 -18.25 L 82.34375 -94.109375 L 98.90625 -94.109375 L 98.90625 -93.171875 C 96.207031 -93.171875 94.242188 -92.351562 93.015625 -90.71875 C 91.796875 -89.09375 91.03125 -86.441406 90.71875 -82.765625 C 90.40625 -79.097656 90.25 -74.160156 90.25 -67.953125 L 90.25 -26.15625 C 90.25 -20.007812 90.40625 -15.082031 90.71875 -11.375 C 91.03125 -7.675781 91.796875 -5.007812 93.015625 -3.375 C 94.242188 -1.75 96.207031 -0.9375 98.90625 -0.9375 L 98.90625 0 L 73.5 0 L 73.5 -0.9375 C 76.195312 -0.9375 78.15625 -1.75 79.375 -3.375 C 80.601562 -5.007812 81.375 -7.675781 81.6875 -11.375 C 82 -15.082031 82.15625 -20.007812 82.15625 -26.15625 L 82.15625 -91 C 78.769531 -81.96875 75.410156 -72.960938 72.078125 -63.984375 C 68.753906 -55.015625 65.367188 -45.835938 61.921875 -36.453125 C 58.472656 -27.078125 54.800781 -17.21875 50.90625 -6.875 L 50.0625 -6.875 C 47.113281 -13.207031 44.367188 -19.085938 41.828125 -24.515625 C 39.285156 -29.941406 36.867188 -35.132812 34.578125 -40.09375 C 32.296875 -45.050781 29.992188 -49.988281 27.671875 -54.90625 C 25.347656 -59.832031 22.960938 -64.945312 20.515625 -70.25 C 18.066406 -75.550781 15.398438 -81.273438 12.515625 -87.421875 L 12.421875 -47.046875 L 12.421875 -35.109375 C 12.421875 -28.265625 12.859375 -22.613281 13.734375 -18.15625 C 14.617188 -13.707031 15.8125 -10.226562 17.3125 -7.71875 C 18.820312 -5.207031 20.515625 -3.445312 22.390625 -2.4375 C 24.273438 -1.4375 26.222656 -0.9375 28.234375 -0.9375 L 28.234375 0 L 2.828125 0 L 2.828125 -0.9375 C 5.523438 -0.9375 7.484375 -1.75 8.703125 -3.375 C 9.929688 -5.007812 10.703125 -7.675781 11.015625 -11.375 C 11.328125 -15.082031 11.484375 -20.007812 11.484375 -26.15625 L 11.484375 -67.953125 C 11.484375 -74.160156 11.328125 -79.097656 11.015625 -82.765625 C 10.703125 -86.441406 9.929688 -89.09375 8.703125 -90.71875 C 7.484375 -92.351562 5.523438 -93.171875 2.828125 -93.171875 Z M 2.828125 -94.109375 "/></g></g></g><g clip-path="url(#f7c42f0c17)"><path fill="#ffffff" d="M 78.277344 172.078125 L 298.21875 172.078125 L 298.21875 197.695312 L 78.277344 197.695312 Z M 78.277344 172.078125 " fill-opacity="1" fill-rule="nonzero"/></g><g fill="#000000" fill-opacity="1"><g transform="translate(81.808208, 190.872439)"><g><path d="M 11.890625 0 L 11.875 -6.9375 L 8.46875 -1.21875 L 7.265625 -1.21875 L 3.875 -6.78125 L 3.875 0 L 1.375 0 L 1.375 -11.5625 L 3.578125 -11.5625 L 7.90625 -4.375 L 12.171875 -11.5625 L 14.375 -11.5625 L 14.40625 0 Z M 11.890625 0 "/></g></g></g><g fill="#000000" fill-opacity="1"><g transform="translate(102.849524, 190.872439)"><g><path d="M 6.96875 0.203125 C 5.769531 0.203125 4.6875 -0.0546875 3.71875 -0.578125 C 2.757812 -1.097656 2.003906 -1.8125 1.453125 -2.71875 C 0.910156 -3.625 0.640625 -4.644531 0.640625 -5.78125 C 0.640625 -6.914062 0.910156 -7.9375 1.453125 -8.84375 C 2.003906 -9.75 2.757812 -10.460938 3.71875 -10.984375 C 4.6875 -11.503906 5.769531 -11.765625 6.96875 -11.765625 C 8.164062 -11.765625 9.242188 -11.503906 10.203125 -10.984375 C 11.160156 -10.460938 11.914062 -9.75 12.46875 -8.84375 C 13.019531 -7.9375 13.296875 -6.914062 13.296875 -5.78125 C 13.296875 -4.644531 13.019531 -3.625 12.46875 -2.71875 C 11.914062 -1.8125 11.160156 -1.097656 10.203125 -0.578125 C 9.242188 -0.0546875 8.164062 0.203125 6.96875 0.203125 Z M 6.96875 -2.078125 C 7.65625 -2.078125 8.269531 -2.234375 8.8125 -2.546875 C 9.363281 -2.859375 9.796875 -3.296875 10.109375 -3.859375 C 10.429688 -4.421875 10.59375 -5.0625 10.59375 -5.78125 C 10.59375 -6.5 10.429688 -7.132812 10.109375 -7.6875 C 9.796875 -8.25 9.363281 -8.6875 8.8125 -9 C 8.269531 -9.320312 7.65625 -9.484375 6.96875 -9.484375 C 6.289062 -9.484375 5.675781 -9.320312 5.125 -9 C 4.570312 -8.6875 4.140625 -8.25 3.828125 -7.6875 C 3.515625 -7.132812 3.359375 -6.5 3.359375 -5.78125 C 3.359375 -5.0625 3.515625 -4.421875 3.828125 -3.859375 C 4.140625 -3.296875 4.570312 -2.859375 5.125 -2.546875 C 5.675781 -2.234375 6.289062 -2.078125 6.96875 -2.078125 Z M 6.96875 -2.078125 "/></g></g></g><g fill="#000000" fill-opacity="1"><g transform="translate(122.058046, 190.872439)"><g><path d="M 3.765625 -9.375 L 0.0625 -9.375 L 0.0625 -11.5625 L 10.140625 -11.5625 L 10.140625 -9.375 L 6.4375 -9.375 L 6.4375 0 L 3.765625 0 Z M 3.765625 -9.375 "/></g></g></g><g fill="#000000" fill-opacity="1"><g transform="translate(137.534924, 190.872439)"><g><path d="M 1.375 -11.5625 L 4.046875 -11.5625 L 4.046875 0 L 1.375 0 Z M 1.375 -11.5625 "/></g></g></g><g fill="#000000" fill-opacity="1"><g transform="translate(148.223424, 190.872439)"><g><path d="M 6.96875 0.203125 C 5.769531 0.203125 4.6875 -0.0546875 3.71875 -0.578125 C 2.757812 -1.097656 2.003906 -1.8125 1.453125 -2.71875 C 0.910156 -3.625 0.640625 -4.644531 0.640625 -5.78125 C 0.640625 -6.914062 0.910156 -7.9375 1.453125 -8.84375 C 2.003906 -9.75 2.757812 -10.460938 3.71875 -10.984375 C 4.6875 -11.503906 5.769531 -11.765625 6.96875 -11.765625 C 8.164062 -11.765625 9.242188 -11.503906 10.203125 -10.984375 C 11.160156 -10.460938 11.914062 -9.75 12.46875 -8.84375 C 13.019531 -7.9375 13.296875 -6.914062 13.296875 -5.78125 C 13.296875 -4.644531 13.019531 -3.625 12.46875 -2.71875 C 11.914062 -1.8125 11.160156 -1.097656 10.203125 -0.578125 C 9.242188 -0.0546875 8.164062 0.203125 6.96875 0.203125 Z M 6.96875 -2.078125 C 7.65625 -2.078125 8.269531 -2.234375 8.8125 -2.546875 C 9.363281 -2.859375 9.796875 -3.296875 10.109375 -3.859375 C 10.429688 -4.421875 10.59375 -5.0625 10.59375 -5.78125 C 10.59375 -6.5 10.429688 -7.132812 10.109375 -7.6875 C 9.796875 -8.25 9.363281 -8.6875 8.8125 -9 C 8.269531 -9.320312 7.65625 -9.484375 6.96875 -9.484375 C 6.289062 -9.484375 5.675781 -9.320312 5.125 -9 C 4.570312 -8.6875 4.140625 -8.25 3.828125 -7.6875 C 3.515625 -7.132812 3.359375 -6.5 3.359375 -5.78125 C 3.359375 -5.0625 3.515625 -4.421875 3.828125 -3.859375 C 4.140625 -3.296875 4.570312 -2.859375 5.125 -2.546875 C 5.675781 -2.234375 6.289062 -2.078125 6.96875 -2.078125 Z M 6.96875 -2.078125 "/></g></g></g><g fill="#000000" fill-opacity="1"><g transform="translate(167.431948, 190.872439)"><g><path d="M 11.96875 -11.5625 L 11.96875 0 L 9.78125 0 L 4.015625 -7.015625 L 4.015625 0 L 1.375 0 L 1.375 -11.5625 L 3.578125 -11.5625 L 9.328125 -4.546875 L 9.328125 -11.5625 Z M 11.96875 -11.5625 "/></g></g></g><g fill="#000000" fill-opacity="1"><g transform="translate(186.046048, 190.872439)"><g><path d="M 11.890625 0 L 11.875 -6.9375 L 8.46875 -1.21875 L 7.265625 -1.21875 L 3.875 -6.78125 L 3.875 0 L 1.375 0 L 1.375 -11.5625 L 3.578125 -11.5625 L 7.90625 -4.375 L 12.171875 -11.5625 L 14.375 -11.5625 L 14.40625 0 Z M 11.890625 0 "/></g></g></g><g fill="#000000" fill-opacity="1"><g transform="translate(207.087359, 190.872439)"><g><path d="M 8.984375 -2.484375 L 3.609375 -2.484375 L 2.59375 0 L -0.15625 0 L 5 -11.5625 L 7.640625 -11.5625 L 12.8125 0 L 10.015625 0 Z M 8.140625 -4.515625 L 6.3125 -8.9375 L 4.46875 -4.515625 Z M 8.140625 -4.515625 "/></g></g></g><g fill="#000000" fill-opacity="1"><g transform="translate(225.00796, 190.872439)"><g><path d="M 5.171875 0.203125 C 4.253906 0.203125 3.367188 0.078125 2.515625 -0.171875 C 1.660156 -0.421875 0.976562 -0.742188 0.46875 -1.140625 L 1.375 -3.15625 C 1.863281 -2.789062 2.445312 -2.5 3.125 -2.28125 C 3.8125 -2.0625 4.5 -1.953125 5.1875 -1.953125 C 5.945312 -1.953125 6.507812 -2.0625 6.875 -2.28125 C 7.238281 -2.507812 7.421875 -2.8125 7.421875 -3.1875 C 7.421875 -3.457031 7.3125 -3.679688 7.09375 -3.859375 C 6.875 -4.046875 6.597656 -4.191406 6.265625 -4.296875 C 5.929688 -4.410156 5.476562 -4.535156 4.90625 -4.671875 C 4.019531 -4.878906 3.296875 -5.085938 2.734375 -5.296875 C 2.179688 -5.503906 1.703125 -5.835938 1.296875 -6.296875 C 0.890625 -6.765625 0.6875 -7.382812 0.6875 -8.15625 C 0.6875 -8.832031 0.867188 -9.441406 1.234375 -9.984375 C 1.597656 -10.523438 2.144531 -10.957031 2.875 -11.28125 C 3.613281 -11.601562 4.507812 -11.765625 5.5625 -11.765625 C 6.300781 -11.765625 7.019531 -11.675781 7.71875 -11.5 C 8.425781 -11.320312 9.046875 -11.066406 9.578125 -10.734375 L 8.75 -8.703125 C 7.6875 -9.304688 6.617188 -9.609375 5.546875 -9.609375 C 4.796875 -9.609375 4.242188 -9.488281 3.890625 -9.25 C 3.535156 -9.007812 3.359375 -8.691406 3.359375 -8.296875 C 3.359375 -7.898438 3.5625 -7.601562 3.96875 -7.40625 C 4.382812 -7.21875 5.015625 -7.03125 5.859375 -6.84375 C 6.742188 -6.632812 7.46875 -6.421875 8.03125 -6.203125 C 8.59375 -5.992188 9.070312 -5.664062 9.46875 -5.21875 C 9.875 -4.769531 10.078125 -4.160156 10.078125 -3.390625 C 10.078125 -2.722656 9.890625 -2.117188 9.515625 -1.578125 C 9.148438 -1.035156 8.597656 -0.601562 7.859375 -0.28125 C 7.117188 0.0390625 6.222656 0.203125 5.171875 0.203125 Z M 5.171875 0.203125 "/></g></g></g><g fill="#000000" fill-opacity="1"><g transform="translate(240.815064, 190.872439)"><g><path d="M 3.765625 -9.375 L 0.0625 -9.375 L 0.0625 -11.5625 L 10.140625 -11.5625 L 10.140625 -9.375 L 6.4375 -9.375 L 6.4375 0 L 3.765625 0 Z M 3.765625 -9.375 "/></g></g></g><g fill="#000000" fill-opacity="1"><g transform="translate(256.291939, 190.872439)"><g><path d="M 10.328125 -2.140625 L 10.328125 0 L 1.375 0 L 1.375 -11.5625 L 10.109375 -11.5625 L 10.109375 -9.40625 L 4.03125 -9.40625 L 4.03125 -6.90625 L 9.390625 -6.90625 L 9.390625 -4.828125 L 4.03125 -4.828125 L 4.03125 -2.140625 Z M 10.328125 -2.140625 "/></g></g></g><g fill="#000000" fill-opacity="1"><g transform="translate(272.643931, 190.872439)"><g><path d="M 8.734375 0 L 6.5 -3.21875 L 4.046875 -3.21875 L 4.046875 0 L 1.375 0 L 1.375 -11.5625 L 6.375 -11.5625 C 7.394531 -11.5625 8.28125 -11.390625 9.03125 -11.046875 C 9.789062 -10.703125 10.375 -10.21875 10.78125 -9.59375 C 11.1875 -8.96875 11.390625 -8.222656 11.390625 -7.359375 C 11.390625 -6.503906 11.179688 -5.765625 10.765625 -5.140625 C 10.359375 -4.523438 9.773438 -4.050781 9.015625 -3.71875 L 11.609375 0 Z M 8.6875 -7.359375 C 8.6875 -8.015625 8.476562 -8.515625 8.0625 -8.859375 C 7.644531 -9.203125 7.03125 -9.375 6.21875 -9.375 L 4.046875 -9.375 L 4.046875 -5.34375 L 6.21875 -5.34375 C 7.03125 -5.34375 7.644531 -5.519531 8.0625 -5.875 C 8.476562 -6.226562 8.6875 -6.722656 8.6875 -7.359375 Z M 8.6875 -7.359375 "/></g></g></g><g fill="#000000" fill-opacity="1"><g transform="translate(290.052671, 190.872439)"><g><path d="M 5.171875 0.203125 C 4.253906 0.203125 3.367188 0.078125 2.515625 -0.171875 C 1.660156 -0.421875 0.976562 -0.742188 0.46875 -1.140625 L 1.375 -3.15625 C 1.863281 -2.789062 2.445312 -2.5 3.125 -2.28125 C 3.8125 -2.0625 4.5 -1.953125 5.1875 -1.953125 C 5.945312 -1.953125 6.507812 -2.0625 6.875 -2.28125 C 7.238281 -2.507812 7.421875 -2.8125 7.421875 -3.1875 C 7.421875 -3.457031 7.3125 -3.679688 7.09375 -3.859375 C 6.875 -4.046875 6.597656 -4.191406 6.265625 -4.296875 C 5.929688 -4.410156 5.476562 -4.535156 4.90625 -4.671875 C 4.019531 -4.878906 3.296875 -5.085938 2.734375 -5.296875 C 2.179688 -5.503906 1.703125 -5.835938 1.296875 -6.296875 C 0.890625 -6.765625 0.6875 -7.382812 0.6875 -8.15625 C 0.6875 -8.832031 0.867188 -9.441406 1.234375 -9.984375 C 1.597656 -10.523438 2.144531 -10.957031 2.875 -11.28125 C 3.613281 -11.601562 4.507812 -11.765625 5.5625 -11.765625 C 6.300781 -11.765625 7.019531 -11.675781 7.71875 -11.5 C 8.425781 -11.320312 9.046875 -11.066406 9.578125 -10.734375 L 8.75 -8.703125 C 7.6875 -9.304688 6.617188 -9.609375 5.546875 -9.609375 C 4.796875 -9.609375 4.242188 -9.488281 3.890625 -9.25 C 3.535156 -9.007812 3.359375 -8.691406 3.359375 -8.296875 C 3.359375 -7.898438 3.5625 -7.601562 3.96875 -7.40625 C 4.382812 -7.21875 5.015625 -7.03125 5.859375 -6.84375 C 6.742188 -6.632812 7.46875 -6.421875 8.03125 -6.203125 C 8.59375 -5.992188 9.070312 -5.664062 9.46875 -5.21875 C 9.875 -4.769531 10.078125 -4.160156 10.078125 -3.390625 C 10.078125 -2.722656 9.890625 -2.117188 9.515625 -1.578125 C 9.148438 -1.035156 8.597656 -0.601562 7.859375 -0.28125 C 7.117188 0.0390625 6.222656 0.203125 5.171875 0.203125 Z M 5.171875 0.203125 "/></g></g></g><g fill="#000000" fill-opacity="1"><g transform="translate(51.010409, 272.583381)"><g><path d="M 10.46875 0 L 10.453125 -6.109375 L 7.453125 -1.078125 L 6.390625 -1.078125 L 3.421875 -5.96875 L 3.421875 0 L 1.203125 0 L 1.203125 -10.171875 L 3.15625 -10.171875 L 6.953125 -3.84375 L 10.703125 -10.171875 L 12.640625 -10.171875 L 12.671875 0 Z M 10.46875 0 "/></g></g></g><g fill="#000000" fill-opacity="1"><g transform="translate(69.511218, 272.583381)"><g><path d="M 7.90625 -2.171875 L 3.1875 -2.171875 L 2.28125 0 L -0.125 0 L 4.40625 -10.171875 L 6.734375 -10.171875 L 11.28125 0 L 8.8125 0 Z M 7.15625 -3.96875 L 5.546875 -7.859375 L 3.9375 -3.96875 Z M 7.15625 -3.96875 "/></g></g></g><g fill="#000000" fill-opacity="1"><g transform="translate(85.267848, 272.583381)"><g><path d="M 4.546875 0.171875 C 3.742188 0.171875 2.96875 0.0625 2.21875 -0.15625 C 1.46875 -0.375 0.863281 -0.65625 0.40625 -1 L 1.203125 -2.78125 C 1.640625 -2.457031 2.15625 -2.195312 2.75 -2 C 3.351562 -1.8125 3.957031 -1.71875 4.5625 -1.71875 C 5.226562 -1.71875 5.722656 -1.816406 6.046875 -2.015625 C 6.367188 -2.210938 6.53125 -2.472656 6.53125 -2.796875 C 6.53125 -3.046875 6.429688 -3.25 6.234375 -3.40625 C 6.046875 -3.5625 5.804688 -3.6875 5.515625 -3.78125 C 5.222656 -3.882812 4.820312 -3.992188 4.3125 -4.109375 C 3.539062 -4.296875 2.90625 -4.476562 2.40625 -4.65625 C 1.914062 -4.84375 1.492188 -5.140625 1.140625 -5.546875 C 0.785156 -5.953125 0.609375 -6.492188 0.609375 -7.171875 C 0.609375 -7.765625 0.765625 -8.300781 1.078125 -8.78125 C 1.398438 -9.257812 1.882812 -9.640625 2.53125 -9.921875 C 3.175781 -10.203125 3.960938 -10.34375 4.890625 -10.34375 C 5.546875 -10.34375 6.179688 -10.265625 6.796875 -10.109375 C 7.421875 -9.953125 7.960938 -9.726562 8.421875 -9.4375 L 7.703125 -7.65625 C 6.765625 -8.1875 5.820312 -8.453125 4.875 -8.453125 C 4.21875 -8.453125 3.734375 -8.34375 3.421875 -8.125 C 3.109375 -7.914062 2.953125 -7.640625 2.953125 -7.296875 C 2.953125 -6.941406 3.132812 -6.679688 3.5 -6.515625 C 3.863281 -6.347656 4.414062 -6.179688 5.15625 -6.015625 C 5.9375 -5.828125 6.570312 -5.640625 7.0625 -5.453125 C 7.550781 -5.273438 7.972656 -4.988281 8.328125 -4.59375 C 8.679688 -4.195312 8.859375 -3.660156 8.859375 -2.984375 C 8.859375 -2.398438 8.695312 -1.867188 8.375 -1.390625 C 8.050781 -0.910156 7.5625 -0.53125 6.90625 -0.25 C 6.257812 0.03125 5.472656 0.171875 4.546875 0.171875 Z M 4.546875 0.171875 "/></g></g></g><g fill="#000000" fill-opacity="1"><g transform="translate(99.165982, 272.583381)"><g><path d="M 3.3125 -8.25 L 0.0625 -8.25 L 0.0625 -10.171875 L 8.921875 -10.171875 L 8.921875 -8.25 L 5.671875 -8.25 L 5.671875 0 L 3.3125 0 Z M 3.3125 -8.25 "/></g></g></g><g fill="#000000" fill-opacity="1"><g transform="translate(112.773721, 272.583381)"><g><path d="M 9.078125 -1.890625 L 9.078125 0 L 1.203125 0 L 1.203125 -10.171875 L 8.890625 -10.171875 L 8.890625 -8.28125 L 3.546875 -8.28125 L 3.546875 -6.078125 L 8.265625 -6.078125 L 8.265625 -4.25 L 3.546875 -4.25 L 3.546875 -1.890625 Z M 9.078125 -1.890625 "/></g></g></g><g fill="#000000" fill-opacity="1"><g transform="translate(127.150996, 272.583381)"><g><path d="M 7.6875 0 L 5.71875 -2.828125 L 3.5625 -2.828125 L 3.5625 0 L 1.203125 0 L 1.203125 -10.171875 L 5.609375 -10.171875 C 6.503906 -10.171875 7.285156 -10.019531 7.953125 -9.71875 C 8.617188 -9.414062 9.128906 -8.988281 9.484375 -8.4375 C 9.847656 -7.882812 10.03125 -7.234375 10.03125 -6.484375 C 10.03125 -5.722656 9.847656 -5.066406 9.484375 -4.515625 C 9.117188 -3.972656 8.601562 -3.554688 7.9375 -3.265625 L 10.21875 0 Z M 7.640625 -6.484375 C 7.640625 -7.054688 7.453125 -7.492188 7.078125 -7.796875 C 6.710938 -8.097656 6.179688 -8.25 5.484375 -8.25 L 3.5625 -8.25 L 3.5625 -4.703125 L 5.484375 -4.703125 C 6.179688 -4.703125 6.710938 -4.859375 7.078125 -5.171875 C 7.453125 -5.484375 7.640625 -5.921875 7.640625 -6.484375 Z M 7.640625 -6.484375 "/></g></g></g><g fill="#000000" fill-opacity="1"><g transform="translate(142.457519, 272.583381)"><g><path d="M 1.203125 -10.171875 L 3.5625 -10.171875 L 3.5625 0 L 1.203125 0 Z M 1.203125 -10.171875 "/></g></g></g><g fill="#000000" fill-opacity="1"><g transform="translate(151.854595, 272.583381)"><g><path d="M 10.53125 -10.171875 L 10.53125 0 L 8.609375 0 L 3.53125 -6.171875 L 3.53125 0 L 1.203125 0 L 1.203125 -10.171875 L 3.15625 -10.171875 L 8.203125 -4 L 8.203125 -10.171875 Z M 10.53125 -10.171875 "/></g></g></g><g fill="#000000" fill-opacity="1"><g transform="translate(168.221041, 272.583381)"><g><path d="M 8.078125 -5.25 L 10.234375 -5.25 L 10.234375 -1.125 C 9.679688 -0.707031 9.039062 -0.382812 8.3125 -0.15625 C 7.582031 0.0625 6.851562 0.171875 6.125 0.171875 C 5.0625 0.171875 4.109375 -0.0507812 3.265625 -0.5 C 2.421875 -0.945312 1.757812 -1.570312 1.28125 -2.375 C 0.800781 -3.175781 0.5625 -4.078125 0.5625 -5.078125 C 0.5625 -6.085938 0.800781 -6.992188 1.28125 -7.796875 C 1.757812 -8.597656 2.425781 -9.222656 3.28125 -9.671875 C 4.132812 -10.117188 5.09375 -10.34375 6.15625 -10.34375 C 7.050781 -10.34375 7.859375 -10.191406 8.578125 -9.890625 C 9.304688 -9.585938 9.921875 -9.15625 10.421875 -8.59375 L 8.90625 -7.1875 C 8.175781 -7.957031 7.300781 -8.34375 6.28125 -8.34375 C 5.625 -8.34375 5.046875 -8.207031 4.546875 -7.9375 C 4.046875 -7.664062 3.65625 -7.28125 3.375 -6.78125 C 3.09375 -6.289062 2.953125 -5.722656 2.953125 -5.078125 C 2.953125 -4.453125 3.09375 -3.890625 3.375 -3.390625 C 3.65625 -2.898438 4.046875 -2.515625 4.546875 -2.234375 C 5.046875 -1.960938 5.613281 -1.828125 6.25 -1.828125 C 6.925781 -1.828125 7.535156 -1.972656 8.078125 -2.265625 Z M 8.078125 -5.25 "/></g></g></g><g fill="#000000" fill-opacity="1"><g transform="translate(184.050256, 272.583381)"><g/></g></g><g fill="#000000" fill-opacity="1"><g transform="translate(192.793953, 272.583381)"><g><path d="M 3.3125 -8.25 L 0.0625 -8.25 L 0.0625 -10.171875 L 8.921875 -10.171875 L 8.921875 -8.25 L 5.671875 -8.25 L 5.671875 0 L 3.3125 0 Z M 3.3125 -8.25 "/></g></g></g><g fill="#000000" fill-opacity="1"><g transform="translate(206.401687, 272.583381)"><g><path d="M 10.53125 -10.171875 L 10.53125 0 L 8.1875 0 L 8.1875 -4.171875 L 3.5625 -4.171875 L 3.5625 0 L 1.203125 0 L 1.203125 -10.171875 L 3.5625 -10.171875 L 3.5625 -6.15625 L 8.1875 -6.15625 L 8.1875 -10.171875 Z M 10.53125 -10.171875 "/></g></g></g><g fill="#000000" fill-opacity="1"><g transform="translate(222.768133, 272.583381)"><g><path d="M 9.078125 -1.890625 L 9.078125 0 L 1.203125 0 L 1.203125 -10.171875 L 8.890625 -10.171875 L 8.890625 -8.28125 L 3.546875 -8.28125 L 3.546875 -6.078125 L 8.265625 -6.078125 L 8.265625 -4.25 L 3.546875 -4.25 L 3.546875 -1.890625 Z M 9.078125 -1.890625 "/></g></g></g><g fill="#000000" fill-opacity="1"><g transform="translate(237.145413, 272.583381)"><g/></g></g><g fill="#000000" fill-opacity="1"><g transform="translate(245.889111, 272.583381)"><g><path d="M 7.90625 -2.171875 L 3.1875 -2.171875 L 2.28125 0 L -0.125 0 L 4.40625 -10.171875 L 6.734375 -10.171875 L 11.28125 0 L 8.8125 0 Z M 7.15625 -3.96875 L 5.546875 -7.859375 L 3.9375 -3.96875 Z M 7.15625 -3.96875 "/></g></g></g><g fill="#000000" fill-opacity="1"><g transform="translate(261.645747, 272.583381)"><g><path d="M 7.6875 0 L 5.71875 -2.828125 L 3.5625 -2.828125 L 3.5625 0 L 1.203125 0 L 1.203125 -10.171875 L 5.609375 -10.171875 C 6.503906 -10.171875 7.285156 -10.019531 7.953125 -9.71875 C 8.617188 -9.414062 9.128906 -8.988281 9.484375 -8.4375 C 9.847656 -7.882812 10.03125 -7.234375 10.03125 -6.484375 C 10.03125 -5.722656 9.847656 -5.066406 9.484375 -4.515625 C 9.117188 -3.972656 8.601562 -3.554688 7.9375 -3.265625 L 10.21875 0 Z M 7.640625 -6.484375 C 7.640625 -7.054688 7.453125 -7.492188 7.078125 -7.796875 C 6.710938 -8.097656 6.179688 -8.25 5.484375 -8.25 L 3.5625 -8.25 L 3.5625 -4.703125 L 5.484375 -4.703125 C 6.179688 -4.703125 6.710938 -4.859375 7.078125 -5.171875 C 7.453125 -5.484375 7.640625 -5.921875 7.640625 -6.484375 Z M 7.640625 -6.484375 "/></g></g></g><g fill="#000000" fill-opacity="1"><g transform="translate(276.952265, 272.583381)"><g><path d="M 3.3125 -8.25 L 0.0625 -8.25 L 0.0625 -10.171875 L 8.921875 -10.171875 L 8.921875 -8.25 L 5.671875 -8.25 L 5.671875 0 L 3.3125 0 Z M 3.3125 -8.25 "/></g></g></g><g fill="#000000" fill-opacity="1"><g transform="translate(290.559998, 272.583381)"><g/></g></g><g fill="#000000" fill-opacity="1"><g transform="translate(299.303696, 272.583381)"><g><path d="M 6.125 0.171875 C 5.070312 0.171875 4.117188 -0.0507812 3.265625 -0.5 C 2.421875 -0.957031 1.757812 -1.585938 1.28125 -2.390625 C 0.800781 -3.191406 0.5625 -4.085938 0.5625 -5.078125 C 0.5625 -6.078125 0.800781 -6.976562 1.28125 -7.78125 C 1.757812 -8.582031 2.421875 -9.207031 3.265625 -9.65625 C 4.117188 -10.113281 5.070312 -10.34375 6.125 -10.34375 C 7.1875 -10.34375 8.140625 -10.113281 8.984375 -9.65625 C 9.828125 -9.207031 10.488281 -8.582031 10.96875 -7.78125 C 11.457031 -6.976562 11.703125 -6.078125 11.703125 -5.078125 C 11.703125 -4.085938 11.457031 -3.191406 10.96875 -2.390625 C 10.488281 -1.585938 9.828125 -0.957031 8.984375 -0.5 C 8.140625 -0.0507812 7.1875 0.171875 6.125 0.171875 Z M 6.125 -1.828125 C 6.726562 -1.828125 7.269531 -1.960938 7.75 -2.234375 C 8.238281 -2.515625 8.617188 -2.898438 8.890625 -3.390625 C 9.171875 -3.890625 9.3125 -4.453125 9.3125 -5.078125 C 9.3125 -5.710938 9.171875 -6.273438 8.890625 -6.765625 C 8.617188 -7.265625 8.238281 -7.648438 7.75 -7.921875 C 7.269531 -8.203125 6.726562 -8.34375 6.125 -8.34375 C 5.53125 -8.34375 4.988281 -8.203125 4.5 -7.921875 C 4.019531 -7.648438 3.640625 -7.265625 3.359375 -6.765625 C 3.085938 -6.273438 2.953125 -5.710938 2.953125 -5.078125 C 2.953125 -4.453125 3.085938 -3.890625 3.359375 -3.390625 C 3.640625 -2.898438 4.019531 -2.515625 4.5 -2.234375 C 4.988281 -1.960938 5.53125 -1.828125 6.125 -1.828125 Z M 6.125 -1.828125 "/></g></g></g><g fill="#000000" fill-opacity="1"><g transform="translate(316.19284, 272.583381)"><g><path d="M 3.5625 -8.28125 L 3.5625 -5.59375 L 8.265625 -5.59375 L 8.265625 -3.703125 L 3.5625 -3.703125 L 3.5625 0 L 1.203125 0 L 1.203125 -10.171875 L 8.890625 -10.171875 L 8.890625 -8.28125 Z M 3.5625 -8.28125 "/></g></g></g><g fill="#000000" fill-opacity="1"><g transform="translate(74.42447, 292.833379)"><g><path d="M 4.546875 0.171875 C 3.742188 0.171875 2.96875 0.0625 2.21875 -0.15625 C 1.46875 -0.375 0.863281 -0.65625 0.40625 -1 L 1.203125 -2.78125 C 1.640625 -2.457031 2.15625 -2.195312 2.75 -2 C 3.351562 -1.8125 3.957031 -1.71875 4.5625 -1.71875 C 5.226562 -1.71875 5.722656 -1.816406 6.046875 -2.015625 C 6.367188 -2.210938 6.53125 -2.472656 6.53125 -2.796875 C 6.53125 -3.046875 6.429688 -3.25 6.234375 -3.40625 C 6.046875 -3.5625 5.804688 -3.6875 5.515625 -3.78125 C 5.222656 -3.882812 4.820312 -3.992188 4.3125 -4.109375 C 3.539062 -4.296875 2.90625 -4.476562 2.40625 -4.65625 C 1.914062 -4.84375 1.492188 -5.140625 1.140625 -5.546875 C 0.785156 -5.953125 0.609375 -6.492188 0.609375 -7.171875 C 0.609375 -7.765625 0.765625 -8.300781 1.078125 -8.78125 C 1.398438 -9.257812 1.882812 -9.640625 2.53125 -9.921875 C 3.175781 -10.203125 3.960938 -10.34375 4.890625 -10.34375 C 5.546875 -10.34375 6.179688 -10.265625 6.796875 -10.109375 C 7.421875 -9.953125 7.960938 -9.726562 8.421875 -9.4375 L 7.703125 -7.65625 C 6.765625 -8.1875 5.820312 -8.453125 4.875 -8.453125 C 4.21875 -8.453125 3.734375 -8.34375 3.421875 -8.125 C 3.109375 -7.914062 2.953125 -7.640625 2.953125 -7.296875 C 2.953125 -6.941406 3.132812 -6.679688 3.5 -6.515625 C 3.863281 -6.347656 4.414062 -6.179688 5.15625 -6.015625 C 5.9375 -5.828125 6.570312 -5.640625 7.0625 -5.453125 C 7.550781 -5.273438 7.972656 -4.988281 8.328125 -4.59375 C 8.679688 -4.195312 8.859375 -3.660156 8.859375 -2.984375 C 8.859375 -2.398438 8.695312 -1.867188 8.375 -1.390625 C 8.050781 -0.910156 7.5625 -0.53125 6.90625 -0.25 C 6.257812 0.03125 5.472656 0.171875 4.546875 0.171875 Z M 4.546875 0.171875 "/></g></g></g><g fill="#000000" fill-opacity="1"><g transform="translate(88.322603, 292.833379)"><g><path d="M 3.3125 -8.25 L 0.0625 -8.25 L 0.0625 -10.171875 L 8.921875 -10.171875 L 8.921875 -8.25 L 5.671875 -8.25 L 5.671875 0 L 3.3125 0 Z M 3.3125 -8.25 "/></g></g></g><g fill="#000000" fill-opacity="1"><g transform="translate(101.930343, 292.833379)"><g><path d="M 6.125 0.171875 C 5.070312 0.171875 4.117188 -0.0507812 3.265625 -0.5 C 2.421875 -0.957031 1.757812 -1.585938 1.28125 -2.390625 C 0.800781 -3.191406 0.5625 -4.085938 0.5625 -5.078125 C 0.5625 -6.078125 0.800781 -6.976562 1.28125 -7.78125 C 1.757812 -8.582031 2.421875 -9.207031 3.265625 -9.65625 C 4.117188 -10.113281 5.070312 -10.34375 6.125 -10.34375 C 7.1875 -10.34375 8.140625 -10.113281 8.984375 -9.65625 C 9.828125 -9.207031 10.488281 -8.582031 10.96875 -7.78125 C 11.457031 -6.976562 11.703125 -6.078125 11.703125 -5.078125 C 11.703125 -4.085938 11.457031 -3.191406 10.96875 -2.390625 C 10.488281 -1.585938 9.828125 -0.957031 8.984375 -0.5 C 8.140625 -0.0507812 7.1875 0.171875 6.125 0.171875 Z M 6.125 -1.828125 C 6.726562 -1.828125 7.269531 -1.960938 7.75 -2.234375 C 8.238281 -2.515625 8.617188 -2.898438 8.890625 -3.390625 C 9.171875 -3.890625 9.3125 -4.453125 9.3125 -5.078125 C 9.3125 -5.710938 9.171875 -6.273438 8.890625 -6.765625 C 8.617188 -7.265625 8.238281 -7.648438 7.75 -7.921875 C 7.269531 -8.203125 6.726562 -8.34375 6.125 -8.34375 C 5.53125 -8.34375 4.988281 -8.203125 4.5 -7.921875 C 4.019531 -7.648438 3.640625 -7.265625 3.359375 -6.765625 C 3.085938 -6.273438 2.953125 -5.710938 2.953125 -5.078125 C 2.953125 -4.453125 3.085938 -3.890625 3.359375 -3.390625 C 3.640625 -2.898438 4.019531 -2.515625 4.5 -2.234375 C 4.988281 -1.960938 5.53125 -1.828125 6.125 -1.828125 Z M 6.125 -1.828125 "/></g></g></g><g fill="#000000" fill-opacity="1"><g transform="translate(118.819492, 292.833379)"><g><path d="M 7.6875 0 L 5.71875 -2.828125 L 3.5625 -2.828125 L 3.5625 0 L 1.203125 0 L 1.203125 -10.171875 L 5.609375 -10.171875 C 6.503906 -10.171875 7.285156 -10.019531 7.953125 -9.71875 C 8.617188 -9.414062 9.128906 -8.988281 9.484375 -8.4375 C 9.847656 -7.882812 10.03125 -7.234375 10.03125 -6.484375 C 10.03125 -5.722656 9.847656 -5.066406 9.484375 -4.515625 C 9.117188 -3.972656 8.601562 -3.554688 7.9375 -3.265625 L 10.21875 0 Z M 7.640625 -6.484375 C 7.640625 -7.054688 7.453125 -7.492188 7.078125 -7.796875 C 6.710938 -8.097656 6.179688 -8.25 5.484375 -8.25 L 3.5625 -8.25 L 3.5625 -4.703125 L 5.484375 -4.703125 C 6.179688 -4.703125 6.710938 -4.859375 7.078125 -5.171875 C 7.453125 -5.484375 7.640625 -5.921875 7.640625 -6.484375 Z M 7.640625 -6.484375 "/></g></g></g><g fill="#000000" fill-opacity="1"><g transform="translate(134.126015, 292.833379)"><g><path d="M 1.203125 -10.171875 L 3.5625 -10.171875 L 3.5625 0 L 1.203125 0 Z M 1.203125 -10.171875 "/></g></g></g><g fill="#000000" fill-opacity="1"><g transform="translate(143.523096, 292.833379)"><g><path d="M 9.078125 -1.890625 L 9.078125 0 L 1.203125 0 L 1.203125 -10.171875 L 8.890625 -10.171875 L 8.890625 -8.28125 L 3.546875 -8.28125 L 3.546875 -6.078125 L 8.265625 -6.078125 L 8.265625 -4.25 L 3.546875 -4.25 L 3.546875 -1.890625 Z M 9.078125 -1.890625 "/></g></g></g><g fill="#000000" fill-opacity="1"><g transform="translate(157.900371, 292.833379)"><g><path d="M 4.546875 0.171875 C 3.742188 0.171875 2.96875 0.0625 2.21875 -0.15625 C 1.46875 -0.375 0.863281 -0.65625 0.40625 -1 L 1.203125 -2.78125 C 1.640625 -2.457031 2.15625 -2.195312 2.75 -2 C 3.351562 -1.8125 3.957031 -1.71875 4.5625 -1.71875 C 5.226562 -1.71875 5.722656 -1.816406 6.046875 -2.015625 C 6.367188 -2.210938 6.53125 -2.472656 6.53125 -2.796875 C 6.53125 -3.046875 6.429688 -3.25 6.234375 -3.40625 C 6.046875 -3.5625 5.804688 -3.6875 5.515625 -3.78125 C 5.222656 -3.882812 4.820312 -3.992188 4.3125 -4.109375 C 3.539062 -4.296875 2.90625 -4.476562 2.40625 -4.65625 C 1.914062 -4.84375 1.492188 -5.140625 1.140625 -5.546875 C 0.785156 -5.953125 0.609375 -6.492188 0.609375 -7.171875 C 0.609375 -7.765625 0.765625 -8.300781 1.078125 -8.78125 C 1.398438 -9.257812 1.882812 -9.640625 2.53125 -9.921875 C 3.175781 -10.203125 3.960938 -10.34375 4.890625 -10.34375 C 5.546875 -10.34375 6.179688 -10.265625 6.796875 -10.109375 C 7.421875 -9.953125 7.960938 -9.726562 8.421875 -9.4375 L 7.703125 -7.65625 C 6.765625 -8.1875 5.820312 -8.453125 4.875 -8.453125 C 4.21875 -8.453125 3.734375 -8.34375 3.421875 -8.125 C 3.109375 -7.914062 2.953125 -7.640625 2.953125 -7.296875 C 2.953125 -6.941406 3.132812 -6.679688 3.5 -6.515625 C 3.863281 -6.347656 4.414062 -6.179688 5.15625 -6.015625 C 5.9375 -5.828125 6.570312 -5.640625 7.0625 -5.453125 C 7.550781 -5.273438 7.972656 -4.988281 8.328125 -4.59375 C 8.679688 -4.195312 8.859375 -3.660156 8.859375 -2.984375 C 8.859375 -2.398438 8.695312 -1.867188 8.375 -1.390625 C 8.050781 -0.910156 7.5625 -0.53125 6.90625 -0.25 C 6.257812 0.03125 5.472656 0.171875 4.546875 0.171875 Z M 4.546875 0.171875 "/></g></g></g><g fill="#000000" fill-opacity="1"><g transform="translate(171.79851, 292.833379)"><g/></g></g><g fill="#000000" fill-opacity="1"><g transform="translate(180.542207, 292.833379)"><g><path d="M 1.203125 -10.171875 L 3.5625 -10.171875 L 3.5625 0 L 1.203125 0 Z M 1.203125 -10.171875 "/></g></g></g><g fill="#000000" fill-opacity="1"><g transform="translate(189.939294, 292.833379)"><g><path d="M 10.53125 -10.171875 L 10.53125 0 L 8.609375 0 L 3.53125 -6.171875 L 3.53125 0 L 1.203125 0 L 1.203125 -10.171875 L 3.15625 -10.171875 L 8.203125 -4 L 8.203125 -10.171875 Z M 10.53125 -10.171875 "/></g></g></g><g fill="#000000" fill-opacity="1"><g transform="translate(206.30574, 292.833379)"><g/></g></g><g fill="#000000" fill-opacity="1"><g transform="translate(215.049438, 292.833379)"><g><path d="M 10.46875 0 L 10.453125 -6.109375 L 7.453125 -1.078125 L 6.390625 -1.078125 L 3.421875 -5.96875 L 3.421875 0 L 1.203125 0 L 1.203125 -10.171875 L 3.15625 -10.171875 L 6.953125 -3.84375 L 10.703125 -10.171875 L 12.640625 -10.171875 L 12.671875 0 Z M 10.46875 0 "/></g></g></g><g fill="#000000" fill-opacity="1"><g transform="translate(233.550253, 292.833379)"><g><path d="M 6.125 0.171875 C 5.070312 0.171875 4.117188 -0.0507812 3.265625 -0.5 C 2.421875 -0.957031 1.757812 -1.585938 1.28125 -2.390625 C 0.800781 -3.191406 0.5625 -4.085938 0.5625 -5.078125 C 0.5625 -6.078125 0.800781 -6.976562 1.28125 -7.78125 C 1.757812 -8.582031 2.421875 -9.207031 3.265625 -9.65625 C 4.117188 -10.113281 5.070312 -10.34375 6.125 -10.34375 C 7.1875 -10.34375 8.140625 -10.113281 8.984375 -9.65625 C 9.828125 -9.207031 10.488281 -8.582031 10.96875 -7.78125 C 11.457031 -6.976562 11.703125 -6.078125 11.703125 -5.078125 C 11.703125 -4.085938 11.457031 -3.191406 10.96875 -2.390625 C 10.488281 -1.585938 9.828125 -0.957031 8.984375 -0.5 C 8.140625 -0.0507812 7.1875 0.171875 6.125 0.171875 Z M 6.125 -1.828125 C 6.726562 -1.828125 7.269531 -1.960938 7.75 -2.234375 C 8.238281 -2.515625 8.617188 -2.898438 8.890625 -3.390625 C 9.171875 -3.890625 9.3125 -4.453125 9.3125 -5.078125 C 9.3125 -5.710938 9.171875 -6.273438 8.890625 -6.765625 C 8.617188 -7.265625 8.238281 -7.648438 7.75 -7.921875 C 7.269531 -8.203125 6.726562 -8.34375 6.125 -8.34375 C 5.53125 -8.34375 4.988281 -8.203125 4.5 -7.921875 C 4.019531 -7.648438 3.640625 -7.265625 3.359375 -6.765625 C 3.085938 -6.273438 2.953125 -5.710938 2.953125 -5.078125 C 2.953125 -4.453125 3.085938 -3.890625 3.359375 -3.390625 C 3.640625 -2.898438 4.019531 -2.515625 4.5 -2.234375 C 4.988281 -1.960938 5.53125 -1.828125 6.125 -1.828125 Z M 6.125 -1.828125 "/></g></g></g><g fill="#000000" fill-opacity="1"><g transform="translate(250.439397, 292.833379)"><g><path d="M 3.3125 -8.25 L 0.0625 -8.25 L 0.0625 -10.171875 L 8.921875 -10.171875 L 8.921875 -8.25 L 5.671875 -8.25 L 5.671875 0 L 3.3125 0 Z M 3.3125 -8.25 "/></g></g></g><g fill="#000000" fill-opacity="1"><g transform="translate(264.04713, 292.833379)"><g><path d="M 1.203125 -10.171875 L 3.5625 -10.171875 L 3.5625 0 L 1.203125 0 Z M 1.203125 -10.171875 "/></g></g></g><g fill="#000000" fill-opacity="1"><g transform="translate(273.444217, 292.833379)"><g><path d="M 6.125 0.171875 C 5.070312 0.171875 4.117188 -0.0507812 3.265625 -0.5 C 2.421875 -0.957031 1.757812 -1.585938 1.28125 -2.390625 C 0.800781 -3.191406 0.5625 -4.085938 0.5625 -5.078125 C 0.5625 -6.078125 0.800781 -6.976562 1.28125 -7.78125 C 1.757812 -8.582031 2.421875 -9.207031 3.265625 -9.65625 C 4.117188 -10.113281 5.070312 -10.34375 6.125 -10.34375 C 7.1875 -10.34375 8.140625 -10.113281 8.984375 -9.65625 C 9.828125 -9.207031 10.488281 -8.582031 10.96875 -7.78125 C 11.457031 -6.976562 11.703125 -6.078125 11.703125 -5.078125 C 11.703125 -4.085938 11.457031 -3.191406 10.96875 -2.390625 C 10.488281 -1.585938 9.828125 -0.957031 8.984375 -0.5 C 8.140625 -0.0507812 7.1875 0.171875 6.125 0.171875 Z M 6.125 -1.828125 C 6.726562 -1.828125 7.269531 -1.960938 7.75 -2.234375 C 8.238281 -2.515625 8.617188 -2.898438 8.890625 -3.390625 C 9.171875 -3.890625 9.3125 -4.453125 9.3125 -5.078125 C 9.3125 -5.710938 9.171875 -6.273438 8.890625 -6.765625 C 8.617188 -7.265625 8.238281 -7.648438 7.75 -7.921875 C 7.269531 -8.203125 6.726562 -8.34375 6.125 -8.34375 C 5.53125 -8.34375 4.988281 -8.203125 4.5 -7.921875 C 4.019531 -7.648438 3.640625 -7.265625 3.359375 -6.765625 C 3.085938 -6.273438 2.953125 -5.710938 2.953125 -5.078125 C 2.953125 -4.453125 3.085938 -3.890625 3.359375 -3.390625 C 3.640625 -2.898438 4.019531 -2.515625 4.5 -2.234375 C 4.988281 -1.960938 5.53125 -1.828125 6.125 -1.828125 Z M 6.125 -1.828125 "/></g></g></g><g fill="#000000" fill-opacity="1"><g transform="translate(290.333361, 292.833379)"><g><path d="M 10.53125 -10.171875 L 10.53125 0 L 8.609375 0 L 3.53125 -6.171875 L 3.53125 0 L 1.203125 0 L 1.203125 -10.171875 L 3.15625 -10.171875 L 8.203125 -4 L 8.203125 -10.171875 Z M 10.53125 -10.171875 "/></g></g></g></svg>